<?xml version="1.0" encoding="utf-8"?>
<!-- Generator: Adobe Illustrator 24.0.0, SVG Export Plug-In . SVG Version: 6.00 Build 0)  -->
<svg version="1.1" id="Layer_1" xmlns="http://www.w3.org/2000/svg" xmlns:xlink="http://www.w3.org/1999/xlink" x="0px" y="0px"
	 viewBox="0 0 252.98 253.41" style="enable-background:new 0 0 252.98 253.41;" xml:space="preserve">
<style type="text/css">
	.st0{fill:#5B5B5B;}
	.st1{fill:none;stroke:#5B5B5B;stroke-miterlimit:10;}
	.st2{fill:none;stroke:#5B5B5B;stroke-linecap:round;stroke-miterlimit:10;}
	.st3{fill:#789BC4;}
</style>
<g>
	<g>
		<path class="st0" d="M101.02,0.21v6.6h-1.45v-6.6H101.02z"/>
		<path class="st0" d="M103.4,2.08l0.16,0.94l0.12,0.12v3.66h-1.42V2.08H103.4z M105.55,1.96c0.89,0,1.34,0.44,1.34,1.31v3.54h-1.42
			v-3.1c0-0.21-0.04-0.36-0.12-0.44c-0.08-0.08-0.21-0.12-0.39-0.12c-0.2,0-0.41,0.04-0.63,0.12c-0.22,0.08-0.49,0.2-0.8,0.37
			l-0.07-0.79c0.34-0.29,0.68-0.51,1.04-0.66C104.86,2.04,105.21,1.96,105.55,1.96z"/>
		<path class="st0" d="M109.81,1.96c0.23,0,0.48,0.01,0.75,0.02c0.27,0.02,0.53,0.04,0.79,0.06c0.25,0.03,0.48,0.06,0.68,0.1
			l-0.1,0.88c-0.31-0.01-0.61-0.01-0.92-0.01c-0.31,0-0.61,0-0.9,0c-0.25-0.01-0.44,0-0.57,0.01s-0.23,0.04-0.28,0.09
			c-0.05,0.05-0.08,0.13-0.08,0.25c0,0.14,0.05,0.23,0.14,0.28s0.25,0.1,0.48,0.16l1.23,0.3c0.39,0.1,0.69,0.25,0.88,0.45
			c0.19,0.2,0.29,0.5,0.29,0.9c0,0.4-0.07,0.7-0.22,0.91c-0.15,0.21-0.38,0.36-0.7,0.44c-0.32,0.08-0.73,0.12-1.23,0.12
			c-0.2,0-0.49-0.01-0.88-0.03c-0.39-0.02-0.82-0.07-1.28-0.14l0.1-0.88c0.11,0.01,0.26,0.01,0.44,0.01s0.37,0,0.58,0
			c0.21,0,0.42,0,0.63,0c0.33,0,0.57-0.01,0.75-0.02c0.17-0.02,0.29-0.05,0.35-0.11c0.06-0.06,0.1-0.14,0.1-0.26
			c0-0.14-0.05-0.24-0.16-0.29c-0.11-0.05-0.28-0.11-0.52-0.16l-1.2-0.3c-0.3-0.08-0.53-0.19-0.7-0.32
			c-0.17-0.13-0.28-0.28-0.35-0.47c-0.07-0.18-0.1-0.4-0.1-0.66c0-0.33,0.07-0.58,0.2-0.78s0.34-0.34,0.64-0.43
			C108.92,2,109.32,1.96,109.81,1.96z"/>
		<path class="st0" d="M116.25,2.08v0.93h-3.57V2.13l0.92-0.05H116.25z M114.93,0.77V5.3c0,0.17,0.04,0.3,0.12,0.37
			c0.08,0.07,0.21,0.11,0.4,0.11h0.61l0.15,0.96c-0.12,0.04-0.25,0.07-0.42,0.1c-0.17,0.03-0.33,0.05-0.5,0.07
			c-0.17,0.02-0.31,0.02-0.42,0.02c-0.43,0-0.76-0.11-1-0.34c-0.24-0.23-0.36-0.55-0.36-0.97l-0.01-4.84H114.93z"/>
		<path class="st0" d="M118.12,2.08l0.17,0.94l0.13,0.12v3.66h-1.42V2.08H118.12z M120.42,1.96l-0.13,1.31h-0.39
			c-0.22,0-0.46,0.03-0.7,0.1c-0.24,0.06-0.55,0.16-0.92,0.29l-0.1-0.79c0.33-0.29,0.67-0.52,1-0.67c0.34-0.15,0.67-0.23,0.99-0.23
			H120.42z"/>
		<path class="st0" d="M122.48,2.08v3.11c0,0.2,0.04,0.34,0.13,0.42s0.22,0.12,0.42,0.12c0.2,0,0.39-0.04,0.59-0.11
			s0.44-0.19,0.72-0.35l0.12,0.77c-0.34,0.3-0.68,0.52-1.01,0.67c-0.33,0.15-0.67,0.22-1.02,0.22c-0.9,0-1.35-0.44-1.35-1.32V2.08
			H122.48z M125.61,2.08v4.72h-1.12l-0.16-0.93l-0.13-0.13V2.08H125.61z"/>
		<path class="st0" d="M128.96,1.96c0.17,0,0.36,0.01,0.56,0.02c0.2,0.02,0.41,0.04,0.62,0.09c0.21,0.04,0.4,0.1,0.57,0.18
			l-0.15,0.89c-0.25-0.01-0.5-0.01-0.73-0.02c-0.23-0.01-0.44-0.01-0.63-0.01c-0.29,0-0.51,0.04-0.68,0.11
			c-0.17,0.08-0.29,0.21-0.36,0.41s-0.11,0.46-0.11,0.81c0,0.35,0.04,0.62,0.11,0.82c0.07,0.2,0.19,0.33,0.36,0.41
			c0.17,0.08,0.39,0.12,0.68,0.12c0.1,0,0.23,0,0.39-0.01c0.16-0.01,0.33-0.01,0.52-0.02c0.18-0.01,0.37-0.03,0.54-0.05l0.13,0.9
			c-0.25,0.12-0.54,0.2-0.87,0.25s-0.65,0.08-0.97,0.08c-0.59,0-1.05-0.08-1.4-0.24c-0.35-0.16-0.6-0.43-0.75-0.79
			c-0.15-0.36-0.23-0.85-0.23-1.45s0.08-1.09,0.23-1.45c0.16-0.36,0.41-0.62,0.76-0.78C127.92,2.04,128.38,1.96,128.96,1.96z"/>
		<path class="st0" d="M134.8,2.08v0.93h-3.57V2.13l0.92-0.05H134.8z M133.48,0.77V5.3c0,0.17,0.04,0.3,0.12,0.37
			c0.08,0.07,0.21,0.11,0.4,0.11h0.61l0.15,0.96c-0.12,0.04-0.25,0.07-0.42,0.1c-0.17,0.03-0.33,0.05-0.5,0.07
			c-0.17,0.02-0.31,0.02-0.42,0.02c-0.43,0-0.76-0.11-1-0.34c-0.24-0.23-0.36-0.55-0.36-0.97l-0.01-4.84H133.48z"/>
		<path class="st0" d="M136.6,0c0.28,0,0.42,0.14,0.42,0.43v0.51c0,0.29-0.14,0.43-0.42,0.43h-0.61c-0.28,0-0.42-0.14-0.42-0.43
			V0.43c0-0.29,0.14-0.43,0.42-0.43H136.6z M137,2.08v4.72h-1.41V2.08H137z"/>
		<path class="st0" d="M140.44,1.96c0.59,0,1.07,0.08,1.42,0.24c0.36,0.16,0.61,0.43,0.77,0.79c0.16,0.36,0.23,0.85,0.23,1.46
			c0,0.6-0.08,1.08-0.23,1.44c-0.16,0.36-0.41,0.62-0.77,0.78c-0.36,0.16-0.83,0.24-1.42,0.24c-0.59,0-1.06-0.08-1.42-0.24
			c-0.36-0.16-0.62-0.42-0.78-0.78C138.08,5.54,138,5.06,138,4.46c0-0.61,0.08-1.1,0.24-1.46c0.16-0.36,0.42-0.63,0.78-0.79
			C139.38,2.04,139.85,1.96,140.44,1.96z M140.44,2.99c-0.24,0-0.43,0.04-0.57,0.12c-0.14,0.08-0.24,0.23-0.3,0.44
			c-0.06,0.21-0.09,0.51-0.09,0.9c0,0.38,0.03,0.68,0.09,0.89c0.06,0.21,0.16,0.36,0.3,0.44c0.14,0.08,0.33,0.12,0.57,0.12
			s0.43-0.04,0.57-0.12c0.14-0.08,0.24-0.22,0.3-0.44c0.06-0.21,0.09-0.51,0.09-0.89c0-0.39-0.03-0.69-0.09-0.9
			c-0.06-0.21-0.16-0.36-0.3-0.44C140.87,3.04,140.68,2.99,140.44,2.99z"/>
		<path class="st0" d="M144.97,2.08l0.16,0.94l0.12,0.12v3.66h-1.42V2.08H144.97z M147.12,1.96c0.89,0,1.34,0.44,1.34,1.31v3.54
			h-1.42v-3.1c0-0.21-0.04-0.36-0.12-0.44c-0.08-0.08-0.21-0.12-0.39-0.12c-0.2,0-0.41,0.04-0.63,0.12c-0.22,0.08-0.49,0.2-0.8,0.37
			l-0.07-0.79c0.34-0.29,0.68-0.51,1.04-0.66C146.43,2.04,146.78,1.96,147.12,1.96z"/>
		<path class="st0" d="M151.38,1.96c0.23,0,0.48,0.01,0.75,0.02c0.27,0.02,0.53,0.04,0.79,0.06c0.25,0.03,0.48,0.06,0.68,0.1
			l-0.1,0.88c-0.31-0.01-0.61-0.01-0.92-0.01c-0.31,0-0.61,0-0.9,0c-0.25-0.01-0.44,0-0.57,0.01s-0.23,0.04-0.28,0.09
			c-0.05,0.05-0.08,0.13-0.08,0.25c0,0.14,0.05,0.23,0.14,0.28s0.25,0.1,0.48,0.16l1.23,0.3c0.39,0.1,0.69,0.25,0.88,0.45
			c0.19,0.2,0.29,0.5,0.29,0.9c0,0.4-0.07,0.7-0.22,0.91c-0.15,0.21-0.38,0.36-0.7,0.44c-0.32,0.08-0.73,0.12-1.23,0.12
			c-0.2,0-0.49-0.01-0.88-0.03c-0.39-0.02-0.82-0.07-1.28-0.14l0.1-0.88c0.11,0.01,0.26,0.01,0.44,0.01s0.37,0,0.58,0
			c0.21,0,0.42,0,0.63,0c0.33,0,0.57-0.01,0.75-0.02c0.17-0.02,0.29-0.05,0.35-0.11c0.06-0.06,0.1-0.14,0.1-0.26
			c0-0.14-0.05-0.24-0.16-0.29c-0.11-0.05-0.28-0.11-0.52-0.16l-1.2-0.3c-0.3-0.08-0.53-0.19-0.7-0.32
			c-0.17-0.13-0.28-0.28-0.35-0.47c-0.07-0.18-0.1-0.4-0.1-0.66c0-0.33,0.07-0.58,0.2-0.78s0.34-0.34,0.64-0.43
			C150.49,2,150.89,1.96,151.38,1.96z"/>
	</g>
	<rect x="65.75" y="55.88" class="st1" width="121.47" height="72.8"/>
	<rect x="102.73" y="68.35" class="st1" width="47.52" height="47.86"/>
	<g>
		<line class="st2" x1="248.44" y1="166.45" x2="252.48" y2="168.94"/>
		<line class="st2" x1="187.23" y1="128.68" x2="245.57" y2="164.68"/>
		<g>
			<line class="st2" x1="4.54" y1="166.45" x2="0.5" y2="168.94"/>
			<line class="st2" x1="65.75" y1="128.68" x2="7.41" y2="164.68"/>
		</g>
	</g>
	<g>
		<line class="st2" x1="248.44" y1="18.12" x2="252.48" y2="15.62"/>
		<line class="st2" x1="187.23" y1="55.89" x2="245.57" y2="19.89"/>
		<g>
			<line class="st2" x1="4.54" y1="18.12" x2="0.5" y2="15.62"/>
			<line class="st2" x1="65.75" y1="55.89" x2="7.41" y2="19.89"/>
		</g>
	</g>
	<g>
		<g>
			<path class="st1" d="M176.22,240.9h-14.61c-2.34,0-4.24-1.9-4.24-4.24v-14.61c0-2.34,1.9-4.24,4.24-4.24h14.61
				c2.34,0,4.24,1.9,4.24,4.24v14.61C180.46,239,178.56,240.9,176.22,240.9z"/>
			<path class="st1" d="M203.31,240.9H188.7c-2.34,0-4.24-1.9-4.24-4.24v-14.61c0-2.34,1.9-4.24,4.24-4.24h14.61
				c2.34,0,4.24,1.9,4.24,4.24v14.61C207.55,239,205.65,240.9,203.31,240.9z"/>
			<path class="st1" d="M203.31,213.81H188.7c-2.34,0-4.24-1.9-4.24-4.24v-14.61c0-2.34,1.9-4.24,4.24-4.24h14.61
				c2.34,0,4.24,1.9,4.24,4.24v14.61C207.55,211.91,205.65,213.81,203.31,213.81z"/>
			<path class="st1" d="M230.4,240.9h-14.61c-2.34,0-4.24-1.9-4.24-4.24v-14.61c0-2.34,1.9-4.24,4.24-4.24h14.61
				c2.34,0,4.24,1.9,4.24,4.24v14.61C234.64,239,232.75,240.9,230.4,240.9z"/>
			<path class="st0" d="M225.47,229.88c-0.19,0-0.34,0-0.49,0c-1.82,0-3.64,0-5.46,0c-0.44,0-0.66-0.17-0.67-0.51
				c-0.01-0.35,0.23-0.55,0.67-0.55c1.85,0,3.7,0,5.56,0c0.12,0,0.24,0,0.44,0c-0.24-0.25-0.44-0.45-0.63-0.65
				c-0.31-0.32-0.36-0.62-0.12-0.86c0.23-0.24,0.56-0.21,0.86,0.1c0.49,0.49,0.98,0.98,1.47,1.47c0.34,0.34,0.34,0.6,0.01,0.94
				c-0.5,0.51-1.01,1.02-1.52,1.52c-0.29,0.28-0.58,0.31-0.82,0.08c-0.24-0.23-0.21-0.55,0.07-0.84c0.19-0.2,0.39-0.39,0.58-0.59
				C225.44,229.97,225.44,229.95,225.47,229.88z"/>
			<path class="st0" d="M166.54,228.83c0.19,0,0.34,0,0.49,0c1.82,0,3.64,0,5.46,0c0.44,0,0.66,0.17,0.67,0.51
				c0.01,0.35-0.23,0.55-0.67,0.55c-1.85,0-3.7,0-5.56,0c-0.12,0-0.24,0-0.44,0c0.24,0.25,0.44,0.45,0.63,0.65
				c0.31,0.32,0.36,0.62,0.12,0.86c-0.23,0.24-0.56,0.21-0.86-0.1c-0.49-0.49-0.98-0.98-1.47-1.47c-0.34-0.34-0.34-0.6-0.01-0.94
				c0.5-0.51,1.01-1.02,1.52-1.52c0.29-0.28,0.58-0.31,0.82-0.08c0.24,0.23,0.21,0.55-0.07,0.84c-0.19,0.2-0.39,0.39-0.58,0.59
				C166.57,228.74,166.57,228.76,166.54,228.83z"/>
			<path class="st0" d="M196.53,199.89c0,0.19,0,0.34,0,0.49c0,1.82,0,3.64,0,5.46c0,0.44-0.17,0.66-0.51,0.67
				c-0.35,0.01-0.55-0.23-0.55-0.67c0-1.85,0-3.7,0-5.56c0-0.12,0-0.24,0-0.44c-0.25,0.24-0.45,0.44-0.65,0.63
				c-0.32,0.31-0.62,0.36-0.86,0.12c-0.24-0.23-0.21-0.56,0.1-0.86c0.49-0.49,0.98-0.98,1.47-1.47c0.34-0.34,0.6-0.34,0.94-0.01
				c0.51,0.5,1.02,1.01,1.52,1.52c0.28,0.29,0.31,0.58,0.08,0.82c-0.23,0.24-0.55,0.21-0.84-0.07c-0.2-0.19-0.39-0.39-0.59-0.58
				C196.62,199.92,196.6,199.92,196.53,199.89z"/>
			<path class="st3" d="M196.53,180.09c0,0.19,0,0.34,0,0.49c0,1.82,0,3.64,0,5.46c0,0.44-0.17,0.66-0.51,0.67
				c-0.35,0.01-0.55-0.23-0.55-0.67c0-1.85,0-3.7,0-5.56c0-0.12,0-0.24,0-0.44c-0.25,0.24-0.45,0.44-0.65,0.63
				c-0.32,0.31-0.62,0.36-0.86,0.12c-0.24-0.23-0.21-0.56,0.1-0.86c0.49-0.49,0.98-0.98,1.47-1.47c0.34-0.34,0.6-0.34,0.94-0.01
				c0.51,0.5,1.02,1.01,1.52,1.52c0.28,0.29,0.31,0.58,0.08,0.82c-0.23,0.24-0.55,0.21-0.84-0.07c-0.2-0.19-0.39-0.39-0.59-0.58
				C196.62,180.12,196.6,180.12,196.53,180.09z"/>
			<path class="st0" d="M195.48,231.72c0-0.19,0-0.34,0-0.49c0-1.82,0-3.64,0-5.46c0-0.44,0.17-0.66,0.51-0.67
				c0.35-0.01,0.55,0.23,0.55,0.67c0,1.85,0,3.7,0,5.56c0,0.12,0,0.24,0,0.44c0.25-0.24,0.45-0.44,0.65-0.63
				c0.32-0.31,0.62-0.36,0.86-0.12c0.24,0.23,0.21,0.56-0.1,0.86c-0.49,0.49-0.98,0.98-1.47,1.47c-0.34,0.34-0.6,0.34-0.94,0.01
				c-0.51-0.5-1.02-1.01-1.52-1.52c-0.28-0.29-0.31-0.58-0.08-0.82c0.23-0.24,0.55-0.21,0.84,0.07c0.2,0.19,0.39,0.39,0.59,0.58
				C195.39,231.69,195.41,231.7,195.48,231.72z"/>
			<path class="st3" d="M195.48,251.52c0-0.19,0-0.34,0-0.49c0-1.82,0-3.64,0-5.46c0-0.44,0.17-0.66,0.51-0.67
				c0.35-0.01,0.55,0.23,0.55,0.67c0,1.85,0,3.7,0,5.56c0,0.12,0,0.24,0,0.44c0.25-0.24,0.45-0.44,0.65-0.63
				c0.32-0.31,0.62-0.36,0.86-0.12c0.24,0.23,0.21,0.56-0.1,0.86c-0.49,0.49-0.98,0.98-1.47,1.47c-0.34,0.34-0.6,0.34-0.94,0.01
				c-0.51-0.5-1.02-1.01-1.52-1.52c-0.28-0.29-0.31-0.58-0.08-0.82c0.23-0.24,0.55-0.21,0.84,0.07c0.2,0.19,0.39,0.39,0.59,0.58
				C195.39,251.49,195.41,251.5,195.48,251.52z"/>
			<g id="NzPahM_12_">
				<g>
					<path class="st3" d="M246.26,226.14c0-0.29,0-0.55,0-0.82c0-0.28,0.2-0.47,0.46-0.47c0.24,0,0.44,0.19,0.44,0.43
						c0,0.77,0,1.53,0,2.3c0,0.23-0.2,0.42-0.43,0.42c-0.76,0-1.52,0-2.28,0c-0.23,0-0.42-0.18-0.43-0.41
						c-0.02-0.24,0.13-0.44,0.37-0.48c0.05-0.01,0.1-0.01,0.15-0.01c0.41,0,0.82,0,1.23,0c0.04,0,0.08,0,0.12,0
						c0-0.05-0.04-0.07-0.06-0.1c-0.99-1.07-2.2-1.49-3.61-1.12c-1.44,0.37-2.33,1.33-2.64,2.78c-0.43,2.05,1.01,4.03,3.07,4.27
						c1.22,0.14,2.26-0.25,3.11-1.14c0.13-0.14,0.29-0.22,0.48-0.17c0.34,0.08,0.45,0.49,0.21,0.75c-0.28,0.31-0.61,0.58-0.97,0.81
						c-2.68,1.67-6.25,0.07-6.79-3.04c-0.4-2.3,1-4.53,3.26-5.12c1.57-0.41,2.98-0.05,4.2,1.03
						C246.19,226.07,246.21,226.1,246.26,226.14z"/>
				</g>
			</g>
			<g id="NzPahM_11_">
				<g>
					<path class="st3" d="M145.75,226.14c0-0.29,0-0.55,0-0.82c0-0.28-0.2-0.47-0.46-0.47c-0.24,0-0.44,0.19-0.44,0.43
						c0,0.77,0,1.53,0,2.3c0,0.23,0.2,0.42,0.43,0.42c0.76,0,1.52,0,2.28,0c0.23,0,0.42-0.18,0.43-0.41
						c0.02-0.24-0.13-0.44-0.37-0.48c-0.05-0.01-0.1-0.01-0.15-0.01c-0.41,0-0.82,0-1.23,0c-0.04,0-0.08,0-0.12,0
						c0-0.05,0.04-0.07,0.06-0.1c0.99-1.07,2.2-1.49,3.61-1.12c1.44,0.37,2.33,1.33,2.64,2.78c0.43,2.05-1.01,4.03-3.07,4.27
						c-1.22,0.14-2.26-0.25-3.11-1.14c-0.13-0.14-0.29-0.22-0.48-0.17c-0.34,0.08-0.45,0.49-0.21,0.75
						c0.28,0.31,0.61,0.58,0.97,0.81c2.68,1.67,6.25,0.07,6.79-3.04c0.4-2.3-1-4.53-3.26-5.12c-1.57-0.41-2.98-0.05-4.2,1.03
						C145.82,226.07,145.79,226.1,145.75,226.14z"/>
				</g>
			</g>
		</g>
		<g>
			<path class="st1" d="M37.19,240.9H22.58c-2.34,0-4.24-1.9-4.24-4.24v-14.61c0-2.34,1.9-4.24,4.24-4.24h14.61
				c2.34,0,4.24,1.9,4.24,4.24v14.61C41.43,239,39.53,240.9,37.19,240.9z"/>
			<path class="st1" d="M64.28,240.9H49.67c-2.34,0-4.24-1.9-4.24-4.24v-14.61c0-2.34,1.9-4.24,4.24-4.24h14.61
				c2.34,0,4.24,1.9,4.24,4.24v14.61C68.52,239,66.62,240.9,64.28,240.9z"/>
			<path class="st1" d="M64.28,213.81H49.67c-2.34,0-4.24-1.9-4.24-4.24v-14.61c0-2.34,1.9-4.24,4.24-4.24h14.61
				c2.34,0,4.24,1.9,4.24,4.24v14.61C68.52,211.91,66.62,213.81,64.28,213.81z"/>
			<path class="st1" d="M91.38,240.9H76.76c-2.34,0-4.24-1.9-4.24-4.24v-14.61c0-2.34,1.9-4.24,4.24-4.24h14.61
				c2.34,0,4.24,1.9,4.24,4.24v14.61C95.62,239,93.72,240.9,91.38,240.9z"/>
			<path class="st1" d="M91.38,213.81H76.76c-2.34,0-4.24-1.9-4.24-4.24v-14.61c0-2.34,1.9-4.24,4.24-4.24h14.61
				c2.34,0,4.24,1.9,4.24,4.24v14.61C95.62,211.91,93.72,213.81,91.38,213.81z"/>
			<path class="st3" d="M106.24,229.88c-0.19,0-0.34,0-0.49,0c-1.82,0-3.64,0-5.46,0c-0.44,0-0.66-0.17-0.67-0.51
				c-0.01-0.35,0.23-0.55,0.67-0.55c1.85,0,3.7,0,5.56,0c0.12,0,0.24,0,0.44,0c-0.24-0.25-0.44-0.45-0.63-0.65
				c-0.31-0.32-0.36-0.62-0.12-0.86c0.23-0.24,0.56-0.21,0.86,0.1c0.49,0.49,0.98,0.98,1.47,1.47c0.34,0.34,0.34,0.6,0.01,0.94
				c-0.5,0.51-1.01,1.02-1.52,1.52c-0.29,0.28-0.58,0.31-0.82,0.08c-0.24-0.23-0.21-0.55,0.07-0.84c0.19-0.2,0.39-0.39,0.58-0.59
				C106.21,229.97,106.21,229.95,106.24,229.88z"/>
			<path class="st1" d="M37.19,213.81H22.58c-2.34,0-4.24-1.9-4.24-4.24v-14.61c0-2.34,1.9-4.24,4.24-4.24h14.61
				c2.34,0,4.24,1.9,4.24,4.24v14.61C41.43,211.91,39.53,213.81,37.19,213.81z"/>
			<path class="st3" d="M7.71,228.83c0.19,0,0.34,0,0.49,0c1.82,0,3.64,0,5.46,0c0.44,0,0.66,0.17,0.67,0.51
				c0.01,0.35-0.23,0.55-0.67,0.55c-1.85,0-3.7,0-5.56,0c-0.12,0-0.24,0-0.44,0c0.24,0.25,0.44,0.45,0.63,0.65
				c0.31,0.32,0.36,0.62,0.12,0.86c-0.23,0.24-0.56,0.21-0.86-0.1c-0.49-0.49-0.98-0.98-1.47-1.47c-0.34-0.34-0.34-0.6-0.01-0.94
				c0.5-0.51,1.01-1.02,1.52-1.52c0.29-0.28,0.58-0.31,0.82-0.08c0.24,0.23,0.21,0.55-0.07,0.84c-0.19,0.2-0.39,0.39-0.58,0.59
				C7.75,228.74,7.74,228.76,7.71,228.83z"/>
			<path class="st3" d="M57.5,180.09c0,0.19,0,0.34,0,0.49c0,1.82,0,3.64,0,5.46c0,0.44-0.17,0.66-0.51,0.67
				c-0.35,0.01-0.55-0.23-0.55-0.67c0-1.85,0-3.7,0-5.56c0-0.12,0-0.24,0-0.44c-0.25,0.24-0.45,0.44-0.65,0.63
				c-0.32,0.31-0.62,0.36-0.86,0.12c-0.24-0.23-0.21-0.56,0.1-0.86c0.49-0.49,0.98-0.98,1.47-1.47c0.34-0.34,0.6-0.34,0.94-0.01
				c0.51,0.5,1.02,1.01,1.52,1.52c0.28,0.29,0.31,0.58,0.08,0.82c-0.23,0.24-0.55,0.21-0.84-0.07c-0.2-0.19-0.39-0.39-0.59-0.58
				C57.6,180.12,57.57,180.12,57.5,180.09z"/>
			<path class="st3" d="M56.45,251.52c0-0.19,0-0.34,0-0.49c0-1.82,0-3.64,0-5.46c0-0.44,0.17-0.66,0.51-0.67
				c0.35-0.01,0.55,0.23,0.55,0.67c0,1.85,0,3.7,0,5.56c0,0.12,0,0.24,0,0.44c0.25-0.24,0.45-0.44,0.65-0.63
				c0.32-0.31,0.62-0.36,0.86-0.12c0.24,0.23,0.21,0.56-0.1,0.86c-0.49,0.49-0.98,0.98-1.47,1.47c-0.34,0.34-0.6,0.34-0.94,0.01
				c-0.51-0.5-1.02-1.01-1.52-1.52c-0.28-0.29-0.31-0.58-0.08-0.82c0.23-0.24,0.55-0.21,0.84,0.07c0.2,0.19,0.39,0.39,0.59,0.58
				C56.36,251.49,56.38,251.5,56.45,251.52z"/>
			<g>
				<path class="st0" d="M56.9,226.46c0.27,0,0.57,0.01,0.89,0.04c0.32,0.03,0.63,0.09,0.94,0.18l-0.08,0.81
					c-0.24,0-0.51-0.01-0.82-0.02c-0.31-0.01-0.62-0.01-0.93-0.01c-0.15,0-0.28,0-0.38,0.01c-0.1,0.01-0.19,0.03-0.25,0.06
					c-0.06,0.04-0.11,0.09-0.14,0.16c-0.03,0.07-0.04,0.17-0.04,0.29c0,0.19,0.04,0.32,0.13,0.41c0.09,0.08,0.24,0.16,0.45,0.23
					l1.06,0.34c0.44,0.15,0.75,0.35,0.92,0.61s0.26,0.59,0.26,1.01c0,0.32-0.04,0.58-0.11,0.78c-0.08,0.21-0.19,0.37-0.35,0.49
					s-0.37,0.2-0.63,0.25c-0.26,0.05-0.58,0.08-0.96,0.08c-0.18,0-0.44-0.01-0.78-0.04c-0.34-0.02-0.72-0.08-1.15-0.18l0.08-0.86
					c0.31,0,0.59,0.01,0.82,0.02c0.23,0.01,0.43,0.01,0.6,0.02c0.17,0,0.31,0,0.43,0c0.21,0,0.38-0.01,0.5-0.04s0.2-0.08,0.25-0.16
					s0.07-0.19,0.07-0.34c0-0.13-0.02-0.23-0.05-0.31c-0.03-0.08-0.09-0.14-0.17-0.18s-0.18-0.09-0.32-0.12l-1.12-0.38
					c-0.42-0.16-0.72-0.36-0.9-0.61c-0.18-0.25-0.26-0.58-0.26-0.99c0-0.32,0.04-0.58,0.12-0.78c0.08-0.2,0.2-0.36,0.36-0.47
					c0.16-0.11,0.37-0.19,0.63-0.23C56.23,226.48,56.54,226.46,56.9,226.46z"/>
			</g>
			<g>
				<path class="st0" d="M84.06,226.48c0.44,0,0.81,0.05,1.11,0.14c0.3,0.09,0.54,0.25,0.73,0.46c0.18,0.21,0.32,0.5,0.4,0.87
					s0.13,0.82,0.13,1.37c0,0.55-0.04,1.01-0.13,1.37s-0.22,0.65-0.4,0.87c-0.18,0.21-0.43,0.37-0.73,0.46
					c-0.3,0.09-0.67,0.14-1.11,0.14c-0.42,0-0.81-0.01-1.16-0.02c-0.35-0.02-0.69-0.04-1.01-0.06l0.51-0.9
					c0.2,0.01,0.44,0.02,0.72,0.03s0.59,0.01,0.93,0.01c0.27,0,0.49-0.05,0.64-0.16s0.27-0.3,0.34-0.58c0.07-0.28,0.1-0.66,0.1-1.15
					c0-0.49-0.03-0.88-0.1-1.15c-0.07-0.28-0.18-0.47-0.34-0.58c-0.16-0.11-0.37-0.17-0.64-0.17c-0.33,0-0.62,0-0.87,0
					c-0.26,0-0.51,0-0.75,0l-0.54-0.86c0.32-0.02,0.66-0.04,1-0.06C83.24,226.49,83.63,226.48,84.06,226.48z M83.11,226.56v5.52
					h-1.22v-5.52H83.11z"/>
			</g>
			<g>
				<path class="st0" d="M30.45,226.56c0.1,0,0.19,0.03,0.27,0.09s0.13,0.14,0.16,0.23l1.6,5.2h-1.25l-1.13-4.06
					c-0.02-0.09-0.04-0.18-0.06-0.28c-0.02-0.09-0.04-0.18-0.06-0.27h-0.22c-0.02,0.08-0.03,0.17-0.05,0.27
					c-0.02,0.09-0.04,0.19-0.07,0.28l-1.13,4.06h-1.26l1.61-5.2c0.03-0.1,0.08-0.17,0.16-0.23s0.17-0.09,0.27-0.09H30.45z
					 M31.3,229.71v0.92h-2.86v-0.92H31.3z"/>
			</g>
			<g>
				<path class="st0" d="M60.6,199.47l-0.9,5.18c-0.02,0.1-0.06,0.18-0.14,0.24c-0.08,0.06-0.18,0.1-0.29,0.1h-1.14
					c-0.11,0-0.2-0.03-0.28-0.1c-0.08-0.06-0.13-0.15-0.15-0.25l-0.62-3.59c-0.02-0.12-0.03-0.24-0.05-0.36
					c-0.02-0.12-0.03-0.24-0.05-0.36h-0.15c-0.01,0.12-0.02,0.24-0.04,0.36c-0.02,0.12-0.03,0.24-0.05,0.36l-0.62,3.59
					c-0.02,0.1-0.07,0.18-0.15,0.25c-0.08,0.06-0.18,0.1-0.28,0.1h-1.15c-0.11,0-0.2-0.03-0.28-0.1c-0.08-0.06-0.13-0.14-0.15-0.24
					l-0.9-5.18h1.23l0.58,3.84c0.02,0.12,0.03,0.24,0.04,0.38c0.01,0.13,0.02,0.28,0.03,0.42h0.15c0.02-0.13,0.04-0.26,0.07-0.4
					c0.02-0.14,0.04-0.27,0.06-0.4l0.61-3.46c0.02-0.11,0.06-0.2,0.14-0.27s0.18-0.1,0.29-0.1h1.01c0.11,0,0.21,0.04,0.28,0.1
					c0.08,0.07,0.12,0.16,0.14,0.27l0.62,3.47c0.02,0.13,0.04,0.26,0.06,0.4s0.04,0.27,0.06,0.4h0.16c0.01-0.13,0.02-0.26,0.04-0.4
					c0.01-0.14,0.03-0.27,0.04-0.38l0.57-3.86H60.6z"/>
			</g>
			<g>
				<path class="st0" d="M83.45,199.44c0.3,0,0.6,0,0.9,0c0.3,0,0.6,0.01,0.9,0.02c0.29,0.01,0.57,0.03,0.82,0.06l-0.06,0.89h-2.12
					c-0.13,0-0.23,0.04-0.3,0.1c-0.07,0.07-0.1,0.17-0.1,0.3v2.82c0,0.13,0.03,0.24,0.1,0.3s0.17,0.1,0.3,0.1h2.12l0.06,0.89
					c-0.26,0.02-0.53,0.04-0.82,0.05c-0.29,0.01-0.59,0.02-0.9,0.02c-0.3,0-0.61,0-0.9,0c-0.35,0-0.64-0.1-0.85-0.31
					s-0.32-0.47-0.32-0.8v-3.34c0-0.34,0.11-0.6,0.32-0.81C82.81,199.55,83.09,199.44,83.45,199.44z M82.41,201.68h3.3v0.86h-3.3
					V201.68z"/>
			</g>
			<g>
				<path class="st0" d="M29.78,199.36c0.44,0,0.81,0.05,1.11,0.14c0.3,0.09,0.55,0.25,0.74,0.46c0.19,0.22,0.32,0.51,0.4,0.88
					c0.08,0.37,0.12,0.83,0.12,1.39s-0.04,1.02-0.12,1.39c-0.08,0.37-0.22,0.66-0.4,0.88c-0.19,0.22-0.43,0.37-0.74,0.46
					c-0.3,0.09-0.67,0.14-1.11,0.14s-0.81-0.05-1.11-0.14c-0.3-0.09-0.55-0.25-0.74-0.46c-0.19-0.22-0.32-0.51-0.4-0.88
					c-0.08-0.37-0.12-0.83-0.12-1.39s0.04-1.02,0.12-1.39c0.08-0.37,0.22-0.66,0.4-0.88c0.19-0.22,0.43-0.37,0.74-0.46
					C28.97,199.4,29.34,199.36,29.78,199.36z M29.78,200.32c-0.28,0-0.5,0.06-0.66,0.17s-0.27,0.31-0.34,0.58
					c-0.06,0.27-0.1,0.66-0.1,1.16c0,0.49,0.03,0.87,0.1,1.15c0.06,0.28,0.18,0.47,0.34,0.58s0.38,0.17,0.66,0.17
					s0.5-0.06,0.65-0.17s0.27-0.31,0.34-0.58c0.07-0.28,0.1-0.66,0.1-1.15c0-0.5-0.03-0.88-0.1-1.16c-0.07-0.27-0.18-0.47-0.34-0.58
					S30.06,200.32,29.78,200.32z M29.38,205.26c0.36,0.14,0.73,0.26,1.12,0.35c0.39,0.09,0.81,0.16,1.26,0.23l-0.32,1.06
					c-0.48-0.12-0.92-0.26-1.3-0.44c-0.39-0.18-0.74-0.36-1.04-0.56L29.38,205.26z"/>
			</g>
			<g>
				<g id="NzPahM_10_">
					<g>
						<path class="st3" d="M107.24,199.05c0-0.29,0-0.55,0-0.82c0-0.28,0.2-0.47,0.46-0.47c0.24,0,0.44,0.19,0.44,0.43
							c0,0.77,0,1.53,0,2.3c0,0.23-0.2,0.42-0.43,0.42c-0.76,0-1.52,0-2.28,0c-0.23,0-0.42-0.18-0.43-0.41
							c-0.02-0.24,0.13-0.44,0.37-0.48c0.05-0.01,0.1-0.01,0.15-0.01c0.41,0,0.82,0,1.23,0c0.04,0,0.08,0,0.12,0
							c0-0.05-0.04-0.07-0.06-0.1c-0.99-1.07-2.2-1.49-3.61-1.12c-1.44,0.37-2.33,1.33-2.64,2.78c-0.43,2.05,1.01,4.03,3.07,4.27
							c1.22,0.14,2.26-0.25,3.11-1.14c0.13-0.14,0.29-0.22,0.48-0.17c0.34,0.08,0.45,0.49,0.21,0.75c-0.28,0.31-0.61,0.58-0.97,0.81
							c-2.68,1.67-6.25,0.07-6.79-3.04c-0.4-2.3,1-4.53,3.26-5.12c1.57-0.41,2.98-0.05,4.2,1.03
							C107.16,198.98,107.19,199.01,107.24,199.05z"/>
					</g>
				</g>
				<g id="NzPahM_9_">
					<g>
						<path class="st3" d="M6.72,199.05c0-0.29,0-0.55,0-0.82c0-0.28-0.2-0.47-0.46-0.47c-0.24,0-0.44,0.19-0.44,0.43
							c0,0.77,0,1.53,0,2.3c0,0.23,0.2,0.42,0.43,0.42c0.76,0,1.52,0,2.28,0c0.23,0,0.42-0.18,0.43-0.41
							c0.02-0.24-0.13-0.44-0.37-0.48c-0.05-0.01-0.1-0.01-0.15-0.01c-0.41,0-0.82,0-1.23,0c-0.04,0-0.08,0-0.12,0
							c0-0.05,0.04-0.07,0.06-0.1c0.99-1.07,2.2-1.49,3.61-1.12c1.44,0.37,2.33,1.33,2.64,2.78c0.43,2.05-1.01,4.03-3.07,4.27
							c-1.22,0.14-2.26-0.25-3.11-1.14c-0.13-0.14-0.29-0.22-0.48-0.17c-0.34,0.08-0.45,0.49-0.21,0.75
							c0.28,0.31,0.61,0.58,0.97,0.81c2.68,1.67,6.25,0.07,6.79-3.04c0.4-2.3-1-4.53-3.26-5.12c-1.57-0.41-2.98-0.05-4.2,1.03
							C6.79,198.98,6.77,199.01,6.72,199.05z"/>
					</g>
				</g>
			</g>
		</g>
	</g>
	<g id="MGmumT_1_">
		<g>
			<path class="st3" d="M136.11,100.81c0,0.14-0.06,0.26-0.16,0.36c-0.69,0.69-1.37,1.38-2.07,2.06c-0.23,0.23-0.51,0.22-0.76-0.02
				c-0.9-0.9-1.8-1.79-2.69-2.7c-0.09-0.09-0.14-0.11-0.24,0c-0.4,0.41-0.81,0.82-1.22,1.23c-0.34,0.34-0.75,0.25-0.91-0.21
				c-0.92-2.75-1.83-5.5-2.75-8.24c-0.13-0.38,0.09-0.69,0.39-0.72c0.1-0.01,0.18,0.01,0.27,0.04c2.76,0.92,5.52,1.84,8.28,2.76
				c0.44,0.15,0.54,0.56,0.21,0.89c-0.41,0.42-0.83,0.84-1.25,1.25c-0.09,0.09-0.09,0.13,0,0.22c0.9,0.89,1.8,1.79,2.7,2.69
				C136.02,100.51,136.1,100.64,136.11,100.81z M133.21,96.09c-0.02-0.06-0.07-0.06-0.11-0.07c-0.25-0.09-0.5-0.17-0.75-0.25
				c-1.88-0.63-3.76-1.25-5.63-1.88c-0.04-0.01-0.1-0.06-0.14-0.02c-0.03,0.03,0.01,0.08,0.02,0.12c0.71,2.13,1.42,4.26,2.12,6.39
				c0.04,0.13,0.08,0.12,0.17,0.04c0.33-0.33,0.66-0.66,0.99-0.99c0.3-0.3,0.56-0.3,0.86,0c0.89,0.89,1.77,1.77,2.66,2.66
				c0.09,0.09,0.14,0.09,0.23,0c0.38-0.39,0.77-0.78,1.17-1.17c0.1-0.1,0.1-0.15,0-0.24c-0.89-0.89-1.78-1.78-2.67-2.67
				c-0.28-0.28-0.28-0.55,0-0.83c0.33-0.33,0.67-0.67,1-1C133.15,96.15,133.18,96.12,133.21,96.09z"/>
			<path class="st3" d="M124.04,90.81c0,0.42-0.4,0.65-0.73,0.47c-0.04-0.02-0.08-0.05-0.12-0.09c-0.7-0.69-1.39-1.39-2.08-2.08
				c-0.27-0.27-0.17-0.7,0.17-0.82c0.19-0.07,0.36-0.04,0.5,0.1c0.71,0.7,1.41,1.41,2.12,2.12C124,90.59,124.05,90.71,124.04,90.81z
				"/>
			<path class="st3" d="M130.34,88.76c0,0.13-0.05,0.25-0.15,0.35c-0.69,0.69-1.38,1.38-2.07,2.07c-0.21,0.21-0.51,0.21-0.71,0.01
				c-0.2-0.2-0.2-0.51,0.02-0.72c0.68-0.69,1.37-1.38,2.06-2.06c0.16-0.16,0.35-0.2,0.56-0.12
				C130.22,88.36,130.34,88.54,130.34,88.76z"/>
			<path class="st3" d="M124.04,95.03c0,0.15-0.05,0.27-0.15,0.37c-0.69,0.69-1.38,1.38-2.07,2.07c-0.21,0.21-0.51,0.21-0.71,0.02
				c-0.2-0.2-0.2-0.51,0.01-0.72c0.68-0.69,1.37-1.38,2.06-2.06c0.17-0.17,0.38-0.21,0.57-0.12
				C123.94,94.68,124.03,94.83,124.04,95.03z"/>
			<path class="st3" d="M126.15,88.5c0,0.47,0,0.94,0,1.42c0,0.32-0.2,0.54-0.49,0.55c-0.29,0-0.5-0.22-0.5-0.54
				c0-0.96,0-1.92,0-2.88c0-0.32,0.21-0.54,0.5-0.54c0.28,0,0.49,0.22,0.49,0.53C126.15,87.53,126.15,88.02,126.15,88.5z"/>
			<path class="st3" d="M121.21,92.45c0.47,0,0.94,0,1.42,0c0.32,0,0.54,0.2,0.54,0.49c0,0.29-0.22,0.5-0.54,0.5
				c-0.96,0-1.92,0-2.88,0c-0.32,0-0.54-0.21-0.54-0.5c0-0.28,0.22-0.49,0.53-0.49C120.24,92.44,120.73,92.45,121.21,92.45z"/>
		</g>
	</g>
	<g>
		<g id="MGmumT_2_">
			<g>
				<path class="st3" d="M137.52,165.72c-0.01,0.18-0.08,0.34-0.21,0.48c-0.9,0.9-1.79,1.8-2.7,2.69c-0.3,0.3-0.67,0.29-0.99-0.03
					c-1.17-1.17-2.35-2.34-3.51-3.52c-0.12-0.12-0.19-0.14-0.31-0.01c-0.52,0.54-1.06,1.07-1.6,1.6c-0.45,0.45-0.98,0.32-1.18-0.28
					c-1.2-3.59-2.39-7.18-3.59-10.76c-0.17-0.5,0.12-0.9,0.51-0.95c0.13-0.02,0.24,0.02,0.36,0.05c3.6,1.2,7.2,2.4,10.8,3.6
					c0.57,0.19,0.7,0.73,0.28,1.16c-0.54,0.55-1.08,1.09-1.63,1.63c-0.12,0.11-0.11,0.17,0,0.28c1.18,1.17,2.35,2.34,3.52,3.51
					C137.41,165.34,137.51,165.5,137.52,165.72z M133.73,159.57c-0.02-0.08-0.09-0.08-0.14-0.09c-0.32-0.11-0.65-0.22-0.98-0.32
					c-2.45-0.82-4.9-1.63-7.36-2.45c-0.06-0.02-0.12-0.08-0.18-0.02c-0.04,0.04,0.01,0.11,0.02,0.16c0.93,2.78,1.85,5.56,2.77,8.34
					c0.06,0.17,0.1,0.16,0.22,0.05c0.43-0.44,0.86-0.86,1.29-1.3c0.4-0.4,0.73-0.4,1.13,0c1.16,1.16,2.32,2.31,3.47,3.47
					c0.12,0.12,0.18,0.12,0.3,0c0.5-0.51,1.01-1.02,1.52-1.52c0.13-0.12,0.13-0.19,0-0.32c-1.17-1.16-2.33-2.32-3.49-3.48
					c-0.37-0.37-0.37-0.71-0.01-1.08c0.44-0.44,0.87-0.87,1.31-1.31C133.66,159.65,133.7,159.61,133.73,159.57z"/>
				<path class="st3" d="M121.76,152.67c0,0.54-0.52,0.85-0.95,0.61c-0.06-0.03-0.11-0.07-0.15-0.11c-0.91-0.91-1.82-1.81-2.72-2.72
					c-0.35-0.35-0.22-0.91,0.23-1.07c0.24-0.09,0.48-0.05,0.66,0.13c0.93,0.92,1.85,1.84,2.77,2.77
					C121.71,152.39,121.77,152.54,121.76,152.67z"/>
				<path class="st3" d="M121.76,158.19c0.01,0.19-0.07,0.35-0.2,0.48c-0.9,0.9-1.8,1.81-2.71,2.7c-0.27,0.27-0.67,0.27-0.93,0.02
					c-0.26-0.26-0.26-0.66,0.02-0.94c0.89-0.9,1.79-1.8,2.69-2.69c0.22-0.22,0.49-0.27,0.75-0.16
					C121.63,157.72,121.75,157.92,121.76,158.19z"/>
				<path class="st3" d="M118.07,154.81c0.62,0,1.23,0,1.85,0c0.42,0,0.71,0.27,0.71,0.64c0,0.38-0.29,0.65-0.7,0.65
					c-1.25,0-2.51,0-3.76,0c-0.41,0-0.7-0.28-0.7-0.65c0-0.37,0.29-0.64,0.69-0.64C116.8,154.81,117.43,154.81,118.07,154.81z"/>
			</g>
		</g>
		<g>
			<path class="st3" d="M132.33,148.93c-0.14,0-0.25,0-0.36,0c-1.34,0-2.67,0-4.01,0c-0.33,0-0.49-0.12-0.49-0.37
				c-0.01-0.26,0.17-0.41,0.49-0.41c1.36,0,2.72,0,4.08,0c0.09,0,0.17,0,0.32,0c-0.18-0.18-0.32-0.33-0.47-0.48
				c-0.23-0.23-0.26-0.46-0.09-0.63c0.17-0.18,0.41-0.15,0.63,0.07c0.36,0.36,0.72,0.72,1.08,1.08c0.25,0.25,0.25,0.44,0.01,0.69
				c-0.37,0.37-0.74,0.75-1.12,1.12c-0.21,0.21-0.43,0.23-0.6,0.06c-0.17-0.17-0.15-0.4,0.05-0.62c0.14-0.15,0.28-0.29,0.43-0.43
				C132.31,149,132.31,148.98,132.33,148.93z"/>
			<path class="st3" d="M122.61,148.16c0.14,0,0.25,0,0.36,0c1.34,0,2.67,0,4.01,0c0.33,0,0.49,0.12,0.49,0.37
				c0.01,0.26-0.17,0.41-0.49,0.41c-1.36,0-2.72,0-4.08,0c-0.09,0-0.17,0-0.32,0c0.18,0.18,0.32,0.33,0.47,0.48
				c0.23,0.23,0.26,0.46,0.09,0.63c-0.17,0.18-0.41,0.15-0.63-0.07c-0.36-0.36-0.72-0.72-1.08-1.08c-0.25-0.25-0.25-0.44-0.01-0.69
				c0.37-0.37,0.74-0.75,1.12-1.12c0.21-0.21,0.43-0.23,0.6-0.06c0.17,0.17,0.15,0.4-0.05,0.62c-0.14,0.15-0.28,0.29-0.43,0.43
				C122.63,148.09,122.63,148.11,122.61,148.16z"/>
			<path class="st3" d="M127.85,143.7c0,0.14,0,0.25,0,0.36c0,1.34,0,2.67,0,4.01c0,0.33-0.12,0.49-0.37,0.49
				c-0.26,0.01-0.41-0.17-0.41-0.49c0-1.36,0-2.72,0-4.08c0-0.09,0-0.17,0-0.32c-0.18,0.18-0.33,0.32-0.48,0.47
				c-0.23,0.23-0.46,0.26-0.63,0.09c-0.18-0.17-0.15-0.41,0.07-0.63c0.36-0.36,0.72-0.72,1.08-1.08c0.25-0.25,0.44-0.25,0.69-0.01
				c0.37,0.37,0.75,0.74,1.12,1.12c0.21,0.21,0.23,0.43,0.06,0.6c-0.17,0.17-0.4,0.15-0.62-0.05c-0.15-0.14-0.29-0.28-0.43-0.43
				C127.92,143.73,127.9,143.72,127.85,143.7z"/>
			<path class="st3" d="M127.08,153.37c0-0.14,0-0.25,0-0.36c0-1.34,0-2.67,0-4.01c0-0.33,0.12-0.49,0.37-0.49
				c0.26-0.01,0.41,0.17,0.41,0.49c0,1.36,0,2.72,0,4.08c0,0.09,0,0.17,0,0.32c0.18-0.18,0.33-0.32,0.48-0.47
				c0.23-0.23,0.46-0.26,0.63-0.09c0.18,0.17,0.15,0.41-0.07,0.63c-0.36,0.36-0.72,0.72-1.08,1.08c-0.25,0.25-0.44,0.25-0.69,0.01
				c-0.37-0.37-0.75-0.74-1.12-1.12c-0.21-0.21-0.23-0.43-0.06-0.6c0.17-0.17,0.4-0.15,0.62,0.05c0.15,0.14,0.29,0.28,0.43,0.43
				C127.01,153.35,127.03,153.35,127.08,153.37z"/>
		</g>
	</g>
</g>
</svg>
