<?xml version="1.0" encoding="utf-8"?>
<!-- Generator: Adobe Illustrator 24.0.0, SVG Export Plug-In . SVG Version: 6.00 Build 0)  -->
<svg version="1.1" id="Layer_1" xmlns="http://www.w3.org/2000/svg" xmlns:xlink="http://www.w3.org/1999/xlink" x="0px" y="0px"
	 viewBox="0 0 512 512" style="enable-background:new 0 0 512 512;" xml:space="preserve">
<style type="text/css">
	.st0{fill:#5C5B5B;}
	.st1{fill:#FFFFFF;}
</style>
<path class="st0" d="M436.77,512H75.23C33.68,512,0,478.32,0,436.77V75.23C0,33.68,33.68,0,75.23,0h361.54
	C478.32,0,512,33.68,512,75.23v361.54C512,478.32,478.32,512,436.77,512z"/>
<g>
	<path class="st1" d="M217.63,327.13c-0.01-16.55,0.46-33.11-0.12-49.64c-0.82-23.26,17.36-37.18,36.84-38.25
		c20.8-1.14,39.53,14.56,41.23,35.5c1.1,13.53,0.64,27.2,0.68,40.81c0.07,21.89-0.04,43.77-0.02,65.66c0,4.43,0.49,8.64-6.24,8.52
		c-6.79-0.11-4.41-5-4.42-8.02c-0.17-32.83-0.14-65.66-0.07-98.49c0.02-9.71-2.27-18.39-9.19-25.64
		c-8.75-9.16-19.22-11.19-30.8-7.32c-11.32,3.78-17.61,12.24-17.96,24.04c-0.53,17.87-0.24,35.76-0.25,53.64
		c-0.02,18.15,0.02,36.3,0.01,54.45c0,3.44,0.56,7.24-4.86,7.26c-5.49,0.02-4.8-3.86-4.8-7.26
		C217.62,363.96,217.64,345.55,217.63,327.13z"/>
	<path class="st1" d="M423.15,271.5c0,35.78,0,71.57,0,107.35c0,1.87-0.15,3.75,0.04,5.6c0.43,4.25-1.77,5.6-5.62,5.84
		c-4.43,0.27-4.58-2.48-4.57-5.66c0.03-12.02,0-24.03,0.01-36.05c0.05-57.68,0.12-115.36,0.13-173.05c0-5.33,0.04-10.72-0.66-15.98
		c-2.38-17.8-14.42-28.88-32.39-29.37c-13.08-0.36-26.18,0.2-39.26,0.19c-2.95,0-7.23,1.11-7.17-3.89c0.06-4.65,4.09-4.15,7.21-4.2
		c13.36-0.19,26.72-0.55,40.07-0.32c24.49,0.43,41.86,17.68,42.06,42.19c0.29,35.78,0.08,71.57,0.08,107.35
		C423.1,271.5,423.13,271.5,423.15,271.5z"/>
	<path class="st1" d="M88.99,271.93c0-35.23-0.12-70.46,0.04-105.69c0.13-29.1,14.69-43.83,43.81-44.44
		c12.54-0.26,25.1,0.03,37.64,0.13c2.62,0.02,5.63-0.29,5.84,3.68c0.23,4.36-2.98,4.58-5.94,4.61c-12.01,0.12-24.03-0.02-36.04,0.11
		c-23.16,0.26-35.15,10.83-35.65,33.9c-0.76,35.21-0.16,70.45-0.19,105.68c-0.03,36.3-0.12,72.59-0.19,108.89
		c0,2.13-0.13,4.27-0.23,6.4c-0.18,3.9-2.86,4.78-6.07,4.79c-3.73,0.02-3.23-2.87-3.23-5.17c-0.04-16.55-0.01-33.1,0-49.64
		c0-21.08,0-42.17,0-63.25C88.84,271.93,88.92,271.93,88.99,271.93z"/>
	<path class="st1" d="M154.3,304.74c0-25.37-0.51-50.75,0.15-76.1c0.64-24.61,14.18-40.11,37.62-45.06
		c22.09-4.67,46.53,9.8,53.14,31.45c0.93,3.03,1.68,5.78-2.83,6.58c-4.07,0.72-7.07,1.71-8.99-4.17
		c-6.87-21.03-23.17-29.39-44.58-23.68c-13.72,3.66-20.42,13.93-23.73,26.7c-1.32,5.09-1.49,10.58-1.51,15.89
		c-0.2,47-0.26,94-0.36,141c0,2.14-0.17,4.28-0.03,6.41c0.26,3.87-1.29,6.24-5.25,6.5c-5.01,0.33-3.72-3.67-3.73-6.2
		c-0.11-26.44-0.07-52.88-0.07-79.31C154.19,304.74,154.24,304.74,154.3,304.74z"/>
	<path class="st1" d="M347.35,307.6c0-21.88,0.09-43.76-0.04-65.63c-0.06-9.33-0.19-18.71-4.03-27.52
		c-5.7-13.09-15.38-21.17-29.83-22.03c-14.67-0.88-25.93,5.02-32.33,18.8c-1.24,2.66-2.43,5.34-3.72,7.97
		c-2.44,4.94-6.6,2.91-9.73,1.64c-4.13-1.67-0.87-4.45,0.15-6.52c6.92-14.06,15.88-25.96,32.18-30
		c25.09-6.22,50.01,9.65,55.43,35.36c1.27,6.02,1.78,12.12,1.79,18.28c0.07,47.76,0.19,95.52,0.3,143.28c0,1.07-0.08,2.14-0.01,3.2
		c0.35,5.03-3.47,5.63-6.85,5.85c-4.53,0.29-3.01-3.63-3.02-5.83c-0.13-25.61-0.08-51.23-0.08-76.84
		C347.49,307.6,347.42,307.6,347.35,307.6z"/>
	<path class="st1" d="M296.06,122.11c5.06,0,10.12-0.03,15.18,0.01c2.3,0.02,5.16-0.68,5.16,3.11c0,2.7-1.12,4.87-4.09,4.9
		c-11.45,0.1-22.89,0.07-34.34-0.01c-2.15-0.02-3.42-1.12-3.05-3.6c0.38-2.6,1.95-3.67,4.36-3.69c5.59-0.05,11.18-0.02,16.77-0.02
		C296.06,122.57,296.06,122.34,296.06,122.11z"/>
	<path class="st1" d="M228.86,130.37c-4.53,0-9.06,0.03-13.6-0.01c-2.7-0.03-5.57,0.1-5.39-3.97c0.16-3.77,2.77-4.02,5.59-4.06
		c9.6-0.13,19.19-0.35,28.79-0.32c2.04,0,5.41-1.27,5.42,2.62c0.01,3.4-2.05,5.36-5.62,5.37c-5.06,0.01-10.13,0-15.19,0
		C228.86,130.13,228.86,130.25,228.86,130.37z"/>
</g>
</svg>
