<?xml version="1.0" encoding="utf-8"?>
<!-- Generator: Adobe Illustrator 24.0.0, SVG Export Plug-In . SVG Version: 6.00 Build 0)  -->
<svg version="1.1" id="Layer_1" xmlns="http://www.w3.org/2000/svg" xmlns:xlink="http://www.w3.org/1999/xlink" x="0px" y="0px"
	 viewBox="0 0 192.98 177.31" style="enable-background:new 0 0 192.98 177.31;" xml:space="preserve">
<style type="text/css">
	.st0{fill:#789BC4;}
	.st1{fill:#5B5B5B;}
	.st2{fill:none;stroke:#5B5B5B;stroke-miterlimit:10;}
	.st3{fill:none;stroke:#5B5B5B;stroke-linecap:round;stroke-miterlimit:10;}
</style>
<g>
	<g>
		<g id="gOigyW_2_">
			<g>
				<path class="st0" d="M138.57,167.47c0-0.16,0-0.26,0-0.36c0-3.37,0-6.74,0-10.11c0-0.9,0.45-1.58,1.22-1.85
					c1.12-0.4,2.34,0.42,2.35,1.61c0.02,1.95,0.01,3.9,0.01,5.84c0,0.28,0,0.28,0.24,0.16c0.77-0.36,1.65-0.14,2.16,0.55
					c0.1,0.13,0.14,0.18,0.3,0.06c1-0.76,2.38-0.31,2.78,0.9c0.02,0.07,0.04,0.13,0.07,0.22c0.25-0.13,0.5-0.25,0.77-0.29
					c1-0.12,1.94,0.64,2.01,1.65c0.03,0.38,0.03,0.36,0.43,0.34c1.51-0.1,2.86,0.33,4,1.32c1.37,1.18,2.01,2.71,1.95,4.51
					c-0.09,2.56-2.09,4.78-4.62,5.19c-1.16,0.19-2.27,0.04-3.33-0.47c-0.12-0.05-0.17-0.04-0.24,0.06c-0.25,0.34-0.59,0.49-1,0.49
					c-2.22,0-4.44,0-6.66,0c-0.71,0-1.22-0.51-1.24-1.21c-0.02-0.96-0.37-1.78-1.04-2.46c-1.7-1.74-3.4-3.47-5.09-5.21
					c-0.81-0.83-0.84-2.03-0.08-2.82c0.73-0.77,1.98-0.81,2.77-0.1c0.67,0.6,1.35,1.19,2.03,1.79
					C138.41,167.34,138.47,167.38,138.57,167.47z M139.37,162.55c0,1.87,0,3.74,0,5.61c0,0.22,0,0.45-0.24,0.56
					c-0.24,0.1-0.41-0.04-0.58-0.19c-0.02-0.02-0.03-0.03-0.05-0.05c-0.91-0.8-1.82-1.6-2.73-2.4c-0.48-0.42-1.22-0.38-1.64,0.07
					c-0.46,0.49-0.44,1.2,0.06,1.71c1.72,1.77,3.45,3.53,5.17,5.3c0.77,0.79,1.16,1.75,1.19,2.85c0.01,0.37,0.15,0.51,0.51,0.51
					c2.18,0,4.36,0,6.54,0c0.08,0,0.17,0,0.25-0.03c0.22-0.1,0.23-0.18,0.05-0.33c-1.6-1.3-2.37-2.98-2.13-5.03
					c0.26-2.23,1.5-3.75,3.58-4.59c0.35-0.14,0.35-0.13,0.34-0.5c-0.02-0.58-0.44-1.03-0.98-1.05c-0.51-0.01-0.93,0.39-0.99,0.97
					c-0.03,0.26-0.18,0.41-0.41,0.41c-0.24-0.01-0.38-0.16-0.38-0.43c0-0.34,0-0.68,0-1.02c-0.01-0.56-0.36-1.02-0.85-1.11
					c-0.56-0.1-1.08,0.34-1.14,0.96c-0.02,0.26-0.19,0.43-0.4,0.43c-0.23,0-0.39-0.19-0.39-0.46c0-0.11,0-0.22,0-0.33
					c-0.04-0.66-0.63-1.13-1.23-0.97c-0.5,0.14-0.72,0.5-0.77,0.99c-0.02,0.22-0.15,0.34-0.36,0.35c-0.21,0.02-0.37-0.11-0.41-0.33
					c-0.02-0.08-0.01-0.17-0.01-0.25c0-2.03,0-4.05,0-6.08c0-0.45,0.01-0.9,0-1.35c-0.02-0.59-0.6-1.02-1.17-0.9
					c-0.52,0.12-0.81,0.5-0.81,1.09C139.37,158.83,139.37,160.69,139.37,162.55z M156.07,171.75c-0.01-2.63-2.16-4.78-4.77-4.77
					c-2.66,0.01-4.79,2.17-4.78,4.83c0.02,2.59,2.18,4.72,4.8,4.71C153.92,176.51,156.08,174.34,156.07,171.75z"/>
				<path class="st0" d="M144.53,157.58c0,0.96-0.26,1.77-0.79,2.5c-0.2,0.28-0.41,0.34-0.62,0.2c-0.21-0.15-0.22-0.39-0.02-0.67
					c1.38-1.94,0.42-4.6-1.87-5.24c-1.99-0.55-4.04,0.87-4.23,2.91c-0.08,0.86,0.13,1.64,0.63,2.35c0.11,0.15,0.18,0.29,0.12,0.47
					c-0.05,0.14-0.16,0.23-0.31,0.25c-0.17,0.03-0.3-0.05-0.4-0.18c-0.43-0.57-0.7-1.2-0.81-1.9c-0.3-1.9,0.77-3.77,2.56-4.5
					c2.54-1.03,5.37,0.62,5.72,3.34C144.53,157.29,144.53,157.47,144.53,157.58z"/>
				<path class="st0" d="M152.16,172.94c0.52,0,1-0.01,1.48,0c0.33,0.01,0.52,0.3,0.38,0.58c-0.07,0.15-0.2,0.21-0.36,0.21
					c-0.66,0-1.32,0-1.98,0c-0.26,0-0.39-0.16-0.39-0.44c0-0.54,0.23-0.99,0.59-1.37c0.29-0.31,0.64-0.56,0.96-0.85
					c0.17-0.15,0.33-0.31,0.4-0.53c0.11-0.33-0.09-0.69-0.41-0.76c-0.36-0.08-0.67,0.13-0.73,0.49c-0.06,0.37-0.25,0.54-0.52,0.46
					c-0.2-0.06-0.28-0.2-0.28-0.4c-0.01-0.73,0.61-1.35,1.37-1.37c0.72-0.02,1.36,0.58,1.4,1.28c0.03,0.52-0.18,0.93-0.53,1.29
					c-0.2,0.2-0.41,0.38-0.64,0.54C152.6,172.28,152.36,172.55,152.16,172.94z"/>
				<path class="st0" d="M150.1,173.73c-0.14,0.01-0.23-0.07-0.32-0.16c-0.16-0.14-0.29-0.42-0.47-0.41
					c-0.16,0.01-0.3,0.26-0.45,0.41c-0.23,0.22-0.51,0.22-0.66,0c-0.13-0.18-0.1-0.35,0.04-0.51c0.13-0.14,0.27-0.28,0.41-0.41
					c0.09-0.08,0.08-0.14,0-0.22c-0.14-0.13-0.27-0.26-0.4-0.39c-0.16-0.17-0.16-0.39-0.02-0.55c0.15-0.17,0.38-0.18,0.56-0.03
					c0.15,0.13,0.29,0.28,0.43,0.43c0.07,0.07,0.12,0.07,0.19,0c0.13-0.14,0.27-0.28,0.41-0.41c0.18-0.17,0.4-0.17,0.56-0.01
					c0.15,0.15,0.16,0.39,0,0.57c-0.13,0.14-0.27,0.28-0.41,0.41c-0.09,0.08-0.07,0.13,0,0.2c0.15,0.14,0.29,0.28,0.42,0.43
					c0.11,0.13,0.12,0.28,0.05,0.43C150.38,173.66,150.26,173.72,150.1,173.73z"/>
			</g>
		</g>
		<g id="Gq0Jpm_4_">
			<g>
				<path class="st0" d="M45.63,166.28c0-0.09,0-0.18,0-0.27c0-2.76,0-5.53,0.01-8.29c0-0.86,0.49-1.51,1.27-1.7
					c0.98-0.24,1.96,0.47,2.03,1.48c0.01,0.21,0.01,0.42,0.01,0.63c0,1.51,0,3.03-0.01,4.54c0,0.2,0.03,0.23,0.23,0.15
					c0.69-0.28,1.34-0.18,1.9,0.34c0.07,0.07,0.11,0.11,0.2,0.02c0.86-0.84,2.63-0.49,2.81,0.95c0,0.02,0.02,0.04,0.03,0.08
					c0.35-0.18,0.72-0.27,1.11-0.19c0.78,0.15,1.32,0.75,1.33,1.6c0.02,1.49,0.06,2.98-0.03,4.47c-0.08,1.32-0.56,2.5-1.43,3.49
					c-0.7,0.81-1.04,1.73-0.99,2.8c0.01,0.19,0.01,0.39,0,0.58c-0.01,0.21-0.16,0.36-0.35,0.36c-0.19,0.01-0.36-0.13-0.38-0.33
					c-0.1-1.35,0.06-2.63,0.99-3.69c1-1.14,1.46-2.46,1.44-3.97c-0.02-1.16,0-2.31,0-3.47c0-0.12-0.01-0.25-0.03-0.37
					c-0.08-0.48-0.43-0.76-0.89-0.74c-0.42,0.02-0.74,0.34-0.79,0.8c-0.01,0.06,0,0.12-0.01,0.19c-0.03,0.22-0.19,0.37-0.39,0.36
					c-0.2-0.01-0.35-0.16-0.36-0.39c-0.01-0.43,0-0.85,0-1.28c-0.01-0.64-0.41-1-1.05-0.94c-0.44,0.04-0.75,0.35-0.76,0.79
					c-0.02,0.43-0.01,0.87-0.01,1.3c0,0.08,0,0.17-0.03,0.25c-0.06,0.18-0.19,0.27-0.37,0.25c-0.2-0.02-0.33-0.14-0.34-0.35
					c-0.01-0.31,0-0.62-0.01-0.93c0-0.14,0-0.28,0-0.42c-0.01-0.62-0.35-0.96-0.92-0.96c-0.57,0-0.9,0.35-0.91,0.95
					c-0.01,0.37,0,0.75,0,1.12c0,0.42-0.12,0.6-0.38,0.6c-0.25-0.01-0.37-0.19-0.37-0.59c0-2.56,0-5.12,0.01-7.68
					c0-0.14,0-0.28-0.03-0.42c-0.09-0.39-0.46-0.67-0.87-0.67c-0.41,0-0.78,0.27-0.88,0.66c-0.04,0.14-0.04,0.28-0.04,0.42
					c0,3.14,0,6.29-0.01,9.43c0,0.07,0,0.14,0,0.21c0,0.19-0.08,0.33-0.26,0.39c-0.18,0.06-0.32-0.01-0.43-0.15
					c-0.33-0.43-0.66-0.86-0.99-1.3c-0.21-0.28-0.41-0.56-0.64-0.83c-0.38-0.45-0.86-0.69-1.46-0.57c-0.47,0.09-0.67,0.45-0.52,0.91
					c0.05,0.17,0.13,0.33,0.25,0.47c1.17,1.5,1.97,3.19,2.55,4.98c0.24,0.74,0.62,1.41,1.13,2.02c0.65,0.76,0.95,1.66,0.96,2.66
					c0,0.29,0,0.59,0,0.88c-0.01,0.26-0.17,0.43-0.39,0.42c-0.22-0.01-0.35-0.17-0.35-0.44c-0.01-0.44,0.03-0.88-0.03-1.33
					c-0.08-0.61-0.29-1.19-0.7-1.65c-0.69-0.79-1.13-1.7-1.45-2.68c-0.52-1.6-1.27-3.08-2.3-4.41c-0.34-0.44-0.54-0.93-0.43-1.5
					c0.14-0.73,0.93-1.22,1.75-1.12c0.7,0.09,1.25,0.44,1.67,0.99c0.28,0.37,0.56,0.74,0.84,1.11
					C45.6,166.29,45.62,166.29,45.63,166.28z"/>
				<path class="st0" d="M43.14,157.62c0-2.17,1.67-3.97,3.84-4.14c2.11-0.17,4.07,1.34,4.41,3.45c0.22,1.35-0.15,2.53-1.06,3.55
					c-0.1,0.11-0.21,0.22-0.37,0.21c-0.15-0.01-0.26-0.08-0.33-0.22c-0.08-0.17-0.02-0.32,0.1-0.44c0.41-0.43,0.7-0.92,0.86-1.5
					c0.52-1.9-0.7-3.85-2.65-4.24c-1.9-0.38-3.78,0.96-4.02,2.88c-0.13,1.03,0.14,1.95,0.83,2.74c0.05,0.05,0.1,0.1,0.14,0.16
					c0.14,0.17,0.14,0.38,0,0.52c-0.16,0.15-0.37,0.15-0.54-0.02c-0.5-0.5-0.85-1.09-1.04-1.76
					C43.19,158.41,43.14,158.02,43.14,157.62z"/>
				<g>
					<path class="st0" d="M57.15,157.99c-0.13,0-0.24,0-0.35,0c-1.28,0-2.56,0-3.84,0c-0.31,0-0.47-0.12-0.47-0.36
						c-0.01-0.25,0.16-0.39,0.47-0.39c1.3,0,2.61,0,3.91,0c0.08,0,0.17,0,0.31,0c-0.17-0.18-0.31-0.32-0.45-0.46
						c-0.22-0.22-0.25-0.44-0.09-0.61c0.17-0.17,0.39-0.15,0.61,0.07c0.35,0.34,0.69,0.69,1.04,1.04c0.24,0.24,0.24,0.42,0.01,0.66
						c-0.35,0.36-0.71,0.71-1.07,1.07c-0.2,0.2-0.41,0.22-0.57,0.06c-0.17-0.16-0.15-0.38,0.05-0.59c0.13-0.14,0.27-0.28,0.41-0.41
						C57.13,158.06,57.13,158.04,57.15,157.99z"/>
					<path class="st0" d="M37.45,157.26c0.13,0,0.24,0,0.35,0c1.28,0,2.56,0,3.84,0c0.31,0,0.47,0.12,0.47,0.36
						c0.01,0.25-0.16,0.39-0.47,0.39c-1.3,0-2.61,0-3.91,0c-0.08,0-0.17,0-0.31,0c0.17,0.18,0.31,0.32,0.45,0.46
						c0.22,0.22,0.25,0.44,0.09,0.61c-0.17,0.17-0.39,0.15-0.61-0.07c-0.35-0.34-0.69-0.69-1.04-1.04
						c-0.24-0.24-0.24-0.42-0.01-0.66c0.35-0.36,0.71-0.71,1.07-1.07c0.2-0.2,0.41-0.22,0.57-0.06c0.17,0.16,0.15,0.38-0.05,0.59
						c-0.13,0.14-0.27,0.28-0.41,0.41C37.47,157.19,37.47,157.21,37.45,157.26z"/>
					<path class="st0" d="M47.69,147.9c0,0.13,0,0.24,0,0.35c0,1.28,0,2.56,0,3.84c0,0.31-0.12,0.47-0.36,0.47
						c-0.25,0.01-0.39-0.16-0.39-0.47c0-1.3,0-2.61,0-3.91c0-0.08,0-0.17,0-0.31c-0.18,0.17-0.32,0.31-0.46,0.45
						c-0.22,0.22-0.44,0.25-0.61,0.09c-0.17-0.17-0.15-0.39,0.07-0.61c0.34-0.35,0.69-0.69,1.04-1.04c0.24-0.24,0.42-0.24,0.66-0.01
						c0.36,0.35,0.71,0.71,1.07,1.07c0.2,0.2,0.22,0.41,0.06,0.57c-0.16,0.17-0.38,0.15-0.59-0.05c-0.14-0.13-0.28-0.27-0.41-0.41
						C47.76,147.93,47.74,147.92,47.69,147.9z"/>
				</g>
			</g>
		</g>
	</g>
	<g id="Gq0Jpm_3_">
		<g>
			<path class="st0" d="M93.19,94.24c0-0.09,0-0.18,0-0.27c0-2.76,0-5.53,0.01-8.29c0-0.86,0.49-1.51,1.27-1.7
				c0.98-0.24,1.96,0.47,2.03,1.48c0.01,0.21,0.01,0.42,0.01,0.63c0,1.51,0,3.03-0.01,4.54c0,0.2,0.03,0.23,0.23,0.15
				c0.69-0.28,1.34-0.18,1.9,0.34c0.07,0.07,0.11,0.11,0.2,0.02c0.86-0.84,2.63-0.49,2.81,0.95c0,0.02,0.02,0.04,0.03,0.08
				c0.35-0.18,0.72-0.27,1.11-0.19c0.78,0.15,1.32,0.75,1.33,1.6c0.02,1.49,0.06,2.98-0.03,4.47c-0.08,1.32-0.56,2.5-1.43,3.49
				c-0.7,0.81-1.04,1.73-0.99,2.8c0.01,0.19,0.01,0.39,0,0.58c-0.01,0.21-0.16,0.36-0.35,0.36c-0.19,0.01-0.36-0.13-0.38-0.33
				c-0.1-1.35,0.06-2.63,0.99-3.69c1-1.14,1.46-2.46,1.44-3.97c-0.02-1.16,0-2.31,0-3.47c0-0.12-0.01-0.25-0.03-0.37
				c-0.08-0.48-0.43-0.76-0.89-0.74c-0.42,0.02-0.74,0.34-0.79,0.8c-0.01,0.06,0,0.12-0.01,0.19c-0.03,0.22-0.19,0.37-0.39,0.36
				c-0.2-0.01-0.35-0.16-0.36-0.39c-0.01-0.43,0-0.85,0-1.28c-0.01-0.64-0.41-1-1.05-0.94c-0.44,0.04-0.75,0.35-0.76,0.79
				c-0.02,0.43-0.01,0.87-0.01,1.3c0,0.08,0,0.17-0.03,0.25c-0.06,0.18-0.19,0.27-0.37,0.25c-0.2-0.02-0.33-0.14-0.34-0.35
				c-0.01-0.31,0-0.62-0.01-0.93c0-0.14,0-0.28,0-0.42c-0.01-0.62-0.35-0.96-0.92-0.96c-0.57,0-0.9,0.35-0.91,0.95
				c-0.01,0.37,0,0.75,0,1.12c0,0.42-0.12,0.6-0.38,0.6c-0.25-0.01-0.37-0.19-0.37-0.59c0-2.56,0-5.12,0.01-7.68
				c0-0.14,0-0.28-0.03-0.42c-0.09-0.39-0.46-0.67-0.87-0.67c-0.41,0-0.78,0.27-0.88,0.66c-0.04,0.14-0.04,0.28-0.04,0.42
				c0,3.14,0,6.29-0.01,9.43c0,0.07,0,0.14,0,0.21c0,0.19-0.08,0.33-0.26,0.39c-0.18,0.06-0.32-0.01-0.43-0.15
				c-0.33-0.43-0.66-0.86-0.99-1.3c-0.21-0.28-0.41-0.56-0.64-0.83c-0.38-0.45-0.86-0.69-1.46-0.58c-0.47,0.09-0.67,0.45-0.52,0.91
				c0.05,0.17,0.13,0.33,0.25,0.47c1.17,1.5,1.97,3.19,2.55,4.98c0.24,0.74,0.62,1.41,1.13,2.02c0.65,0.76,0.95,1.66,0.96,2.66
				c0,0.29,0,0.59,0,0.88c-0.01,0.26-0.17,0.43-0.39,0.42c-0.22-0.01-0.35-0.17-0.35-0.44c-0.01-0.44,0.03-0.88-0.03-1.33
				c-0.08-0.61-0.29-1.19-0.7-1.65c-0.69-0.79-1.13-1.7-1.45-2.68c-0.52-1.6-1.27-3.08-2.3-4.41c-0.34-0.44-0.54-0.93-0.43-1.5
				c0.14-0.73,0.93-1.22,1.75-1.12c0.7,0.09,1.25,0.44,1.67,0.99c0.28,0.37,0.56,0.74,0.84,1.11
				C93.16,94.25,93.17,94.24,93.19,94.24z"/>
			<path class="st0" d="M90.69,85.58c0-2.17,1.67-3.97,3.84-4.14c2.11-0.17,4.07,1.34,4.41,3.45c0.22,1.35-0.15,2.53-1.06,3.55
				c-0.1,0.11-0.21,0.22-0.37,0.21c-0.15-0.01-0.26-0.08-0.33-0.22c-0.08-0.17-0.02-0.32,0.1-0.44c0.41-0.43,0.7-0.92,0.86-1.5
				c0.52-1.9-0.7-3.85-2.65-4.24c-1.9-0.38-3.78,0.96-4.02,2.88c-0.13,1.03,0.14,1.95,0.83,2.74c0.05,0.05,0.1,0.1,0.14,0.16
				c0.14,0.17,0.14,0.38,0,0.52c-0.16,0.15-0.37,0.15-0.54-0.02c-0.5-0.5-0.85-1.09-1.04-1.76C90.74,86.37,90.7,85.98,90.69,85.58z"
				/>
		</g>
	</g>
	<g>
		<path class="st1" d="M71.02,0.21v6.6h-1.45v-6.6H71.02z"/>
		<path class="st1" d="M73.4,2.08l0.16,0.94l0.12,0.12v3.66h-1.42V2.08H73.4z M75.55,1.96c0.89,0,1.34,0.44,1.34,1.31v3.54h-1.42
			v-3.1c0-0.21-0.04-0.36-0.12-0.43c-0.08-0.08-0.21-0.12-0.39-0.12c-0.2,0-0.41,0.04-0.63,0.12c-0.22,0.08-0.49,0.2-0.8,0.37
			l-0.07-0.79c0.34-0.29,0.68-0.51,1.04-0.66C74.86,2.04,75.21,1.96,75.55,1.96z"/>
		<path class="st1" d="M79.81,1.96c0.23,0,0.48,0.01,0.75,0.02c0.27,0.02,0.53,0.04,0.79,0.06c0.25,0.03,0.48,0.06,0.68,0.1
			l-0.1,0.88C81.61,3.02,81.31,3.01,81,3.01c-0.31,0-0.61,0-0.9,0C79.85,3,79.65,3,79.52,3.01c-0.13,0.01-0.23,0.04-0.28,0.09
			c-0.05,0.05-0.08,0.13-0.08,0.25c0,0.14,0.05,0.23,0.14,0.28s0.25,0.1,0.48,0.16l1.23,0.3c0.39,0.1,0.69,0.25,0.88,0.45
			c0.19,0.2,0.29,0.5,0.29,0.9c0,0.4-0.07,0.7-0.22,0.91s-0.38,0.36-0.7,0.44c-0.32,0.08-0.73,0.12-1.23,0.12
			c-0.2,0-0.49-0.01-0.88-0.03c-0.39-0.02-0.82-0.07-1.28-0.14l0.1-0.88c0.11,0.01,0.26,0.01,0.44,0.01c0.18,0,0.37,0,0.58,0
			c0.21,0,0.42,0,0.63,0c0.33,0,0.57-0.01,0.75-0.02c0.17-0.02,0.29-0.05,0.35-0.11s0.1-0.14,0.1-0.26c0-0.14-0.05-0.24-0.16-0.29
			s-0.28-0.11-0.52-0.16l-1.2-0.3c-0.3-0.08-0.53-0.19-0.7-0.32c-0.17-0.13-0.28-0.28-0.35-0.47c-0.07-0.18-0.1-0.41-0.1-0.66
			c0-0.33,0.07-0.58,0.2-0.78s0.34-0.34,0.64-0.43C78.92,2,79.32,1.96,79.81,1.96z"/>
		<path class="st1" d="M86.25,2.08v0.93h-3.57V2.13l0.92-0.05H86.25z M84.93,0.77V5.3c0,0.17,0.04,0.29,0.12,0.37
			s0.21,0.11,0.4,0.11h0.61l0.15,0.96c-0.12,0.04-0.25,0.07-0.42,0.1c-0.17,0.03-0.33,0.05-0.5,0.07c-0.17,0.02-0.31,0.02-0.42,0.02
			c-0.43,0-0.76-0.12-1-0.34c-0.24-0.23-0.36-0.55-0.36-0.97l-0.01-4.84H84.93z"/>
		<path class="st1" d="M88.12,2.08l0.17,0.94l0.13,0.12v3.66h-1.42V2.08H88.12z M90.42,1.96l-0.13,1.31H89.9
			c-0.22,0-0.46,0.03-0.7,0.1s-0.55,0.16-0.92,0.29l-0.1-0.79c0.33-0.29,0.67-0.52,1-0.67c0.34-0.15,0.67-0.23,0.99-0.23H90.42z"/>
		<path class="st1" d="M92.48,2.08v3.11c0,0.2,0.04,0.34,0.13,0.42s0.22,0.12,0.42,0.12c0.2,0,0.39-0.04,0.59-0.11
			s0.44-0.19,0.72-0.35l0.12,0.78c-0.34,0.3-0.68,0.52-1.01,0.67c-0.33,0.15-0.67,0.22-1.02,0.22c-0.9,0-1.35-0.44-1.35-1.32V2.08
			H92.48z M95.61,2.08v4.72h-1.12l-0.16-0.93l-0.13-0.13V2.08H95.61z"/>
		<path class="st1" d="M98.96,1.96c0.17,0,0.36,0.01,0.56,0.02s0.41,0.04,0.62,0.09c0.21,0.04,0.4,0.1,0.57,0.18l-0.15,0.89
			c-0.25-0.01-0.5-0.01-0.73-0.02c-0.23-0.01-0.44-0.01-0.63-0.01c-0.29,0-0.51,0.04-0.68,0.12c-0.17,0.08-0.29,0.21-0.36,0.41
			s-0.11,0.46-0.11,0.81c0,0.35,0.04,0.62,0.11,0.82s0.19,0.33,0.36,0.41c0.17,0.08,0.39,0.11,0.68,0.11c0.1,0,0.23,0,0.39-0.01
			c0.16-0.01,0.33-0.01,0.52-0.02s0.37-0.03,0.54-0.05l0.13,0.9c-0.25,0.11-0.54,0.2-0.87,0.25c-0.33,0.05-0.65,0.08-0.97,0.08
			c-0.59,0-1.05-0.08-1.4-0.24c-0.35-0.16-0.6-0.43-0.75-0.79c-0.15-0.36-0.23-0.85-0.23-1.45c0-0.61,0.08-1.09,0.23-1.45
			s0.41-0.62,0.76-0.78S98.38,1.96,98.96,1.96z"/>
		<path class="st1" d="M104.8,2.08v0.93h-3.57V2.13l0.92-0.05H104.8z M103.48,0.77V5.3c0,0.17,0.04,0.29,0.12,0.37
			s0.21,0.11,0.4,0.11h0.61l0.15,0.96c-0.12,0.04-0.25,0.07-0.42,0.1c-0.17,0.03-0.33,0.05-0.5,0.07c-0.17,0.02-0.31,0.02-0.42,0.02
			c-0.43,0-0.76-0.12-1-0.34c-0.24-0.23-0.36-0.55-0.36-0.97l-0.01-4.84H103.48z"/>
		<path class="st1" d="M106.6,0c0.28,0,0.42,0.14,0.42,0.43v0.51c0,0.29-0.14,0.43-0.42,0.43h-0.61c-0.28,0-0.42-0.14-0.42-0.43
			V0.43c0-0.29,0.14-0.43,0.42-0.43H106.6z M106.99,2.08v4.72h-1.41V2.08H106.99z"/>
		<path class="st1" d="M110.44,1.96c0.59,0,1.07,0.08,1.42,0.24c0.36,0.16,0.61,0.43,0.77,0.79s0.23,0.85,0.23,1.46
			c0,0.6-0.08,1.08-0.23,1.44s-0.41,0.62-0.77,0.78s-0.83,0.24-1.42,0.24c-0.59,0-1.06-0.08-1.42-0.24
			c-0.36-0.16-0.62-0.42-0.78-0.78C108.08,5.54,108,5.06,108,4.46c0-0.61,0.08-1.1,0.24-1.46c0.16-0.36,0.42-0.63,0.78-0.79
			C109.38,2.04,109.85,1.96,110.44,1.96z M110.44,2.99c-0.24,0-0.43,0.04-0.57,0.12c-0.14,0.08-0.24,0.23-0.3,0.44
			c-0.06,0.21-0.09,0.51-0.09,0.9c0,0.38,0.03,0.68,0.09,0.89c0.06,0.21,0.16,0.36,0.3,0.44c0.14,0.08,0.33,0.12,0.57,0.12
			s0.43-0.04,0.57-0.12c0.14-0.08,0.24-0.23,0.3-0.44c0.06-0.21,0.09-0.51,0.09-0.89c0-0.39-0.03-0.69-0.09-0.9
			c-0.06-0.21-0.16-0.36-0.3-0.44C110.87,3.03,110.68,2.99,110.44,2.99z"/>
		<path class="st1" d="M114.97,2.08l0.16,0.94l0.12,0.12v3.66h-1.42V2.08H114.97z M117.12,1.96c0.89,0,1.34,0.44,1.34,1.31v3.54
			h-1.42v-3.1c0-0.21-0.04-0.36-0.12-0.43c-0.08-0.08-0.21-0.12-0.39-0.12c-0.2,0-0.41,0.04-0.63,0.12c-0.22,0.08-0.49,0.2-0.8,0.37
			l-0.07-0.79c0.34-0.29,0.68-0.51,1.04-0.66C116.43,2.04,116.78,1.96,117.12,1.96z"/>
		<path class="st1" d="M121.38,1.96c0.23,0,0.48,0.01,0.75,0.02c0.27,0.02,0.53,0.04,0.79,0.06c0.25,0.03,0.48,0.06,0.68,0.1
			l-0.1,0.88c-0.31-0.01-0.61-0.01-0.92-0.01c-0.31,0-0.61,0-0.9,0c-0.25-0.01-0.44,0-0.57,0.01c-0.13,0.01-0.23,0.04-0.28,0.09
			c-0.05,0.05-0.08,0.13-0.08,0.25c0,0.14,0.05,0.23,0.14,0.28s0.25,0.1,0.48,0.16l1.23,0.3c0.39,0.1,0.69,0.25,0.88,0.45
			c0.19,0.2,0.29,0.5,0.29,0.9c0,0.4-0.07,0.7-0.22,0.91s-0.38,0.36-0.7,0.44c-0.32,0.08-0.73,0.12-1.23,0.12
			c-0.2,0-0.49-0.01-0.88-0.03c-0.39-0.02-0.82-0.07-1.28-0.14l0.1-0.88c0.11,0.01,0.26,0.01,0.44,0.01c0.18,0,0.37,0,0.58,0
			c0.21,0,0.42,0,0.63,0c0.33,0,0.57-0.01,0.75-0.02c0.17-0.02,0.29-0.05,0.35-0.11s0.1-0.14,0.1-0.26c0-0.14-0.05-0.24-0.16-0.29
			s-0.28-0.11-0.52-0.16l-1.2-0.3c-0.3-0.08-0.53-0.19-0.7-0.32c-0.17-0.13-0.28-0.28-0.35-0.47c-0.07-0.18-0.1-0.41-0.1-0.66
			c0-0.33,0.07-0.58,0.2-0.78s0.34-0.34,0.64-0.43C120.49,2,120.89,1.96,121.38,1.96z"/>
	</g>
	<rect x="72.73" y="68.35" class="st2" width="47.52" height="47.86"/>
	<g>
		<rect x="45.75" y="55.88" class="st2" width="101.47" height="72.8"/>
		<g>
			<line class="st3" x1="188.44" y1="156.45" x2="192.48" y2="158.94"/>
			<line class="st3" x1="147.23" y1="128.68" x2="185.57" y2="154.68"/>
			<g>
				<line class="st3" x1="4.54" y1="156.45" x2="0.5" y2="158.94"/>
				<line class="st3" x1="45.75" y1="128.68" x2="7.41" y2="154.68"/>
			</g>
		</g>
		<g>
			<line class="st3" x1="188.44" y1="28.11" x2="192.48" y2="25.62"/>
			<line class="st3" x1="147.23" y1="55.88" x2="185.57" y2="29.89"/>
			<g>
				<line class="st3" x1="4.54" y1="28.11" x2="0.5" y2="25.62"/>
				<line class="st3" x1="45.75" y1="55.88" x2="7.41" y2="29.89"/>
			</g>
		</g>
	</g>
</g>
</svg>
