<?xml version="1.0" encoding="utf-8"?>
<!-- Generator: Adobe Illustrator 24.0.0, SVG Export Plug-In . SVG Version: 6.00 Build 0)  -->
<svg version="1.1" id="Layer_1" xmlns="http://www.w3.org/2000/svg" xmlns:xlink="http://www.w3.org/1999/xlink" x="0px" y="0px"
	 viewBox="0 0 512 512" style="enable-background:new 0 0 512 512;" xml:space="preserve">
<style type="text/css">
	.st0{fill:#5C5B5B;}
	.st1{fill:#FFFFFF;}
</style>
<path class="st0" d="M436.77,512H75.23C33.68,512,0,478.32,0,436.77V75.23C0,33.68,33.68,0,75.23,0h361.54
	C478.32,0,512,33.68,512,75.23v361.54C512,478.32,478.32,512,436.77,512z"/>
<g>
	<path class="st1" d="M296.06,422.48c-4.82-0.08-8.53-1.6-11.03-4.51c-3.66-4.27-2.96-9.38-2.58-12.13c0.06-0.42,0.14-1,0.14-1.21
		c-0.22-41.31-0.16-82.06-0.08-116.47c0.03-10.73-2.61-18.29-8.55-24.5c-5.32-5.56-11.12-8.27-17.75-8.27
		c-3.1,0-6.44,0.59-9.96,1.77c-9.98,3.34-15.2,10.31-15.51,20.72c-0.45,15.19-0.39,30.72-0.33,45.74
		c0.02,5.81,0.04,11.62,0.04,17.43c-0.01,10.72,0,21.45,0,32.17c0.01,10.73,0.01,21.47,0,32.2c0,0.31,0,0.63,0.01,0.94
		c0.04,3.06,0.11,8.19-3.76,12.11c-2.53,2.57-6.02,3.89-10.35,3.9c-4.41,0-7.88-1.31-10.41-3.88c-3.84-3.91-3.74-8.97-3.68-12
		c0.01-0.36,0.01-0.71,0.01-1.06c-0.03-14.43-0.03-28.87-0.03-43.3l0-22.03c0-6.14,0.05-12.37,0.1-18.4
		c0.11-13.15,0.23-26.74-0.24-40c-0.53-15.12,4.93-28.91,15.38-38.82c9.44-8.95,22.25-14.3,36.08-15.06c0.99-0.05,2-0.08,2.99-0.08
		c28.34,0,52.31,21.85,54.57,49.74c1.01,12.44,0.94,25,0.86,37.15c-0.02,3.92-0.05,7.83-0.03,11.75c0.05,15.04,0.03,30.33,0,45.12
		c-0.02,10.84-0.03,21.69-0.02,32.53l0,0.92c0.03,3.89,0.07,9.23-4.06,13.39c-2.73,2.75-6.56,4.15-11.38,4.15L296.06,422.48z"/>
	<path class="st1" d="M210.64,340.09c-0.01-19.56,0.55-39.15-0.14-58.69c-0.97-27.5,20.52-43.95,43.55-45.22
		c24.59-1.35,46.74,17.22,48.74,41.97c1.3,16,0.75,32.16,0.8,48.24c0.08,25.88-0.05,51.75-0.02,77.63
		c0.01,5.24,0.58,10.21-7.37,10.07c-8.03-0.14-5.21-5.91-5.23-9.49c-0.2-38.81-0.17-77.63-0.08-116.44
		c0.03-11.48-2.69-21.74-10.87-30.31c-10.34-10.83-22.73-13.23-36.41-8.66c-13.38,4.47-20.81,14.47-21.23,28.42
		c-0.63,21.12-0.28,42.27-0.3,63.41c-0.02,21.46,0.03,42.92,0.01,64.37c0,4.07,0.66,8.56-5.75,8.58c-6.49,0.02-5.67-4.57-5.68-8.58
		C210.63,383.64,210.65,361.87,210.64,340.09z"/>
	<path class="st1" d="M446.33,423.17c-4.8,0-7.75-1.95-9.38-3.58c-3.74-3.75-3.72-8.63-3.72-11.54c0.03-8.72,0.02-17.44,0.02-26.16
		c0-5.48-0.01-10.96,0-16.44l0.05-53.04c0.05-50.51,0.1-101.02,0.11-151.53l0-1.01c0-5.88,0.01-11.44-0.71-16.78
		c-2.27-16.98-13.28-26.99-30.22-27.46c-3.43-0.09-7.07-0.14-11.14-0.14c-5.73,0-11.6,0.09-17.27,0.18
		c-5.74,0.09-11.67,0.19-17.54,0.19h-0.25c-0.39,0-0.8,0.03-1.22,0.05c-0.74,0.04-1.51,0.08-2.25,0.08c-1.55,0-6.26,0-9.87-3.65
		c-1.64-1.66-3.58-4.66-3.52-9.55c0.05-3.98,1.65-13.24,15.42-13.24l1.37,0c3.61-0.05,7.23-0.11,10.84-0.17
		c8.45-0.14,17.19-0.29,25.81-0.29c3.9,0,7.5,0.03,10.98,0.09c16.21,0.28,30.91,6.22,41.41,16.72
		c10.54,10.54,16.41,25.27,16.55,41.47c0.25,29.71,0.19,59.9,0.14,89.09c-0.02,9.92-0.04,19.85-0.04,29.77l0.09,8.12v126.92
		c0,0.74-0.02,1.49-0.04,2.23c-0.03,1.31-0.06,2.55,0.04,3.55c0.46,4.49-0.56,8.24-3.02,11.13c-3.84,4.51-9.57,4.86-11.45,4.98
		C447.11,423.16,446.71,423.17,446.33,423.17z"/>
	<path class="st1" d="M453.61,274.33c0,42.31,0,84.61,0,126.92c0,2.21-0.17,4.44,0.05,6.63c0.51,5.03-2.09,6.62-6.65,6.9
		c-5.24,0.32-5.41-2.93-5.4-6.69c0.04-14.21,0-28.41,0.02-42.62c0.06-68.19,0.15-136.39,0.16-204.58c0-6.3,0.05-12.67-0.78-18.9
		c-2.81-21.04-17.05-34.14-38.29-34.73c-15.46-0.43-30.94,0.23-46.42,0.23c-3.49,0-8.55,1.31-8.48-4.6
		c0.07-5.49,4.84-4.91,8.52-4.96c15.79-0.22,31.59-0.65,47.37-0.38c28.95,0.5,49.48,20.9,49.72,49.87
		c0.35,42.3,0.09,84.61,0.09,126.91C453.55,274.33,453.58,274.33,453.61,274.33z"/>
	<path class="st1" d="M62.08,422.79c-4.53,0-7.31-1.87-8.85-3.45c-3.45-3.53-3.36-7.96-3.31-10.34c0-0.23,0.01-0.47,0.01-0.69
		c-0.03-13.93-0.02-27.86-0.01-41.79l0.01-16.92l0-83.16h0.26c0-9.77-0.02-19.54-0.03-29.31c-0.03-28.61-0.06-58.19,0.07-87.3
		c0.18-39,20.93-60.05,59.99-60.88c4.14-0.09,8.53-0.13,13.42-0.13c6.68,0,13.45,0.08,20,0.16c3.78,0.04,7.55,0.09,11.33,0.12h0.82
		c4.13,0,13.8,1.2,14.38,12.29c0.26,5.09-1.68,8.28-3.36,10.06c-3.88,4.12-9.33,4.18-11.95,4.2c-5.33,0.05-10.65,0.06-15.98,0.06
		l-9.41,0c-5.44,0-11.29,0.01-17.21,0.08c-23.26,0.26-33.39,9.8-33.86,31.88c-0.61,28.39-0.47,57.33-0.34,85.31
		c0.06,12.93,0.12,26.3,0.11,39.46c-0.03,37.08-0.11,74.17-0.19,111.25l-0.04,17.49c-0.01,2.31-0.12,4.55-0.22,6.72l-0.06,1.22
		c-0.31,6.56-4.54,13.59-15.5,13.65H62.08z"/>
	<path class="st1" d="M58.56,274.83c0-41.65-0.15-83.3,0.05-124.95c0.16-34.4,17.36-51.82,51.79-52.54
		c14.83-0.31,29.67,0.03,44.5,0.15c3.1,0.02,6.66-0.34,6.9,4.35c0.27,5.15-3.53,5.42-7.02,5.45c-14.2,0.14-28.41-0.03-42.61,0.14
		c-27.38,0.31-41.56,12.8-42.14,40.08c-0.9,41.63-0.19,83.29-0.23,124.94c-0.04,42.91-0.14,85.82-0.23,128.73
		c-0.01,2.52-0.15,5.04-0.27,7.56c-0.22,4.62-3.39,5.65-7.17,5.67c-4.41,0.02-3.82-3.39-3.82-6.11c-0.04-19.56-0.01-39.13,0-58.69
		c0-24.93,0-49.85,0-74.78C58.38,274.83,58.47,274.83,58.56,274.83z"/>
	<path class="st1" d="M139.39,423.12c-4.76,0-7.62-2.01-9.19-3.7c-3.53-3.8-3.18-8.52-2.99-11.05c0.03-0.33,0.06-0.65,0.06-0.95
		c-0.1-24.5-0.09-49.4-0.09-73.48l0-28.7h0.19c-0.02-6.36-0.06-12.73-0.1-18.95c-0.13-20.59-0.26-41.87,0.29-62.86
		c0.85-32.72,19.01-54.47,51.12-61.26c3.82-0.81,7.78-1.22,11.76-1.22c27.42,0,52.99,18.56,60.81,44.14
		c0.9,2.95,2.41,7.89-0.5,12.64c-1.9,3.11-5.07,5.07-9.4,5.84l-0.86,0.16c-1.58,0.29-3.36,0.62-5.27,0.62
		c-4.66,0-10.85-1.97-13.92-11.35c-5.27-16.12-15.36-24.29-29.98-24.29c-3.92,0-8.16,0.6-12.6,1.79
		c-11.49,3.07-18.31,10.96-22.11,25.58c-1.36,5.22-1.5,11.37-1.52,16.71c-0.19,42.42-0.27,85.56-0.35,127.28l-0.08,39.4
		c0,0.94-0.03,1.88-0.05,2.81c-0.04,1.5-0.08,2.92,0,4.17c0.41,5.97-1.67,9.69-3.48,11.77c-1.76,2.01-5.01,4.48-10.54,4.85
		C140.18,423.11,139.77,423.12,139.39,423.12z"/>
	<path class="st1" d="M135.77,313.63c0-29.99-0.61-60,0.17-89.97c0.76-29.09,16.77-47.42,44.48-53.28
		c26.12-5.52,55.01,11.59,62.82,37.18c1.1,3.58,1.99,6.83-3.35,7.78c-4.81,0.85-8.36,2.02-10.63-4.93
		c-8.13-24.86-27.39-34.75-52.7-28c-16.23,4.33-24.14,16.47-28.06,31.57c-1.56,6.02-1.76,12.5-1.79,18.78
		c-0.24,55.57-0.31,111.13-0.43,166.7c-0.01,2.53-0.2,5.06-0.03,7.57c0.31,4.57-1.53,7.37-6.21,7.68c-5.93,0.39-4.39-4.34-4.41-7.33
		c-0.13-31.26-0.08-62.51-0.08-93.77C135.63,313.63,135.7,313.63,135.77,313.63z"/>
	<path class="st1" d="M367.36,423.13c-4.6,0-7.36-2.01-8.86-3.69c-3.41-3.82-2.87-8.57-2.62-10.85c0.03-0.27,0.07-0.54,0.08-0.78
		c-0.12-23.9-0.11-48.26-0.1-71.83l0-10.6h-0.24V317c0-7.44,0.01-14.88,0.02-22.32c0.02-18.11,0.04-36.83-0.07-55.23
		c-0.06-9.93-0.12-20.2-4.06-29.24c-5.83-13.37-15.01-20.25-28.08-21.03c-0.95-0.06-1.9-0.09-2.81-0.09
		c-12.91,0-21.85,5.72-27.31,17.48c-0.43,0.92-0.85,1.84-1.27,2.75c-1.03,2.24-2.09,4.55-3.22,6.84c-2.63,5.33-7.28,8.39-12.77,8.39
		c-3.55,0-6.61-1.25-8.84-2.17l-0.54-0.22c-4.67-1.89-6.49-5.01-7.19-7.3c-1.56-5.09,1.22-9.23,2.55-11.21
		c0.17-0.26,0.35-0.5,0.48-0.74c7.55-15.35,19.36-33.83,43.5-39.81c4.93-1.22,9.98-1.84,15-1.84c29.56,0,54.54,20.58,60.74,50.06
		c1.53,7.26,2.28,14.9,2.29,23.33c0.06,42.55,0.16,85.1,0.26,127.64l0.09,41.74c0,0.52-0.01,1.04-0.02,1.57
		c-0.02,0.64-0.03,1.24,0,1.65c0.37,5.34-1.57,8.77-3.27,10.72c-4,4.58-9.84,4.96-12.64,5.14
		C368.07,423.12,367.7,423.13,367.36,423.13z"/>
	<path class="st1" d="M363.99,317c0-25.87,0.11-51.73-0.05-77.6c-0.07-11.03-0.22-22.12-4.76-32.54
		c-6.74-15.47-18.19-25.02-35.26-26.05c-17.34-1.04-30.65,5.93-38.23,22.22c-1.46,3.14-2.87,6.31-4.4,9.42
		c-2.88,5.84-7.81,3.44-11.5,1.94c-4.89-1.98-1.03-5.26,0.18-7.7c8.18-16.62,18.78-30.69,38.05-35.47
		c29.67-7.36,59.13,11.4,65.53,41.8c1.5,7.12,2.1,14.33,2.11,21.62c0.08,56.46,0.23,112.92,0.35,169.39c0,1.26-0.09,2.53-0.01,3.78
		c0.42,5.95-4.1,6.65-8.1,6.91c-5.36,0.35-3.56-4.3-3.57-6.89c-0.15-30.28-0.1-60.56-0.1-90.84C364.16,317,364.08,317,363.99,317z"
		/>
	<path class="st1" d="M304.32,115.64c-6.76,0-14.09-0.03-22.41-0.09c-3.78-0.03-7.07-1.46-9.28-4.03c-2.21-2.57-3.12-6.07-2.56-9.83
		c1.04-7.05,6.17-11.46,13.38-11.52c2.81-0.02,5.61-0.03,8.42-0.03l3.1,0v-0.82l18.85-0.01c2.51,0,5.03,0.01,7.54,0.03
		c0,0,0,0,0.01,0c0.29,0,0.54-0.01,0.79-0.02c0.45-0.02,0.9-0.03,1.34-0.03c1.96,0,4.88,0.23,7.62,2.2c1.74,1.25,4.66,4.21,4.66,9.9
		c-0.01,8.27-5.41,14.09-13.13,14.16C316.81,115.61,310.82,115.64,304.32,115.64z"/>
	<path class="st1" d="M303.36,97.71c5.98,0,11.97-0.03,17.95,0.01c2.72,0.02,6.1-0.8,6.1,3.67c0,3.19-1.32,5.76-4.83,5.79
		c-13.53,0.12-27.07,0.09-40.6-0.01c-2.54-0.02-4.04-1.33-3.61-4.26c0.45-3.08,2.31-4.34,5.16-4.37c6.61-0.06,13.22-0.02,19.83-0.02
		C303.36,98.26,303.36,97.98,303.36,97.71z"/>
	<path class="st1" d="M214.41,115.87c-2.22,0-4.43-0.01-6.65-0.03l-0.34,0c-2.8-0.02-7.49-0.06-11.07-3.83
		c-1.6-1.68-3.46-4.71-3.25-9.6c0.2-4.71,2.4-12.64,14.86-12.81c2.96-0.04,5.92-0.09,8.88-0.14c7.73-0.12,15.72-0.25,23.61-0.25
		l1.69,0c0.15-0.01,0.39-0.04,0.63-0.06c0.71-0.08,1.6-0.17,2.61-0.17c6.76,0,11.51,4.8,11.53,11.68c0.02,5.29-2.2,8.64-4.08,10.52
		c-1.91,1.93-5.37,4.22-10.93,4.24c-2.5,0-9.66,0.01-9.66,0.01l0,0.43h-8.31L214.41,115.87z"/>
	<path class="st1" d="M223.91,107.48c-5.36,0-10.72,0.04-16.07-0.01c-3.2-0.03-6.58,0.12-6.38-4.69c0.19-4.46,3.28-4.75,6.61-4.79
		c11.35-0.15,22.69-0.41,34.03-0.38c2.42,0.01,6.39-1.5,6.41,3.1c0.02,4.02-2.42,6.34-6.65,6.35c-5.99,0.01-11.97,0-17.96,0
		C223.91,107.19,223.91,107.34,223.91,107.48z"/>
</g>
</svg>
