<?xml version="1.0" encoding="utf-8"?>
<!-- Generator: Adobe Illustrator 24.0.0, SVG Export Plug-In . SVG Version: 6.00 Build 0)  -->
<svg version="1.1" id="Layer_1" xmlns="http://www.w3.org/2000/svg" xmlns:xlink="http://www.w3.org/1999/xlink" x="0px" y="0px"
	 viewBox="0 0 337.87 197.98" style="enable-background:new 0 0 337.87 197.98;" xml:space="preserve">
<style type="text/css">
	.st0{fill:#5C5B5B;}
</style>
<g id="RBXp7O_3_">
	<g>
		<path class="st0" d="M156.71,75.58c0-5.15,0.14-10.31-0.04-15.46c-0.26-7.24,5.4-11.58,11.47-11.91
			c6.48-0.36,12.31,4.53,12.84,11.05c0.34,4.21,0.2,8.47,0.21,12.71c0.02,6.82-0.01,13.63-0.01,20.45c0,1.38,0.15,2.69-1.94,2.65
			c-2.11-0.04-1.37-1.56-1.38-2.5c-0.05-10.22-0.05-20.45-0.02-30.67c0.01-3.02-0.71-5.73-2.86-7.98c-2.72-2.85-5.99-3.49-9.59-2.28
			c-3.52,1.18-5.48,3.81-5.59,7.48c-0.16,5.56-0.07,11.13-0.08,16.7c-0.01,5.65,0.01,11.3,0,16.96c0,1.07,0.17,2.26-1.51,2.26
			c-1.71,0.01-1.49-1.2-1.5-2.26C156.7,87.05,156.71,81.31,156.71,75.58z"/>
		<path class="st0" d="M220.7,58.25c0,11.14,0,22.29,0,33.43c0,0.58-0.05,1.17,0.01,1.75c0.13,1.32-0.55,1.74-1.75,1.82
			c-1.38,0.08-1.42-0.77-1.42-1.76c0.01-3.74,0-7.48,0-11.23c0.02-17.96,0.04-35.92,0.04-53.88c0-1.66,0.01-3.34-0.21-4.98
			c-0.74-5.54-4.49-8.99-10.09-9.15c-4.07-0.11-8.15,0.06-12.23,0.06c-0.92,0-2.25,0.35-2.23-1.21c0.02-1.45,1.27-1.29,2.24-1.31
			c4.16-0.06,8.32-0.17,12.48-0.1c7.62,0.13,13.03,5.51,13.1,13.14c0.09,11.14,0.02,22.29,0.02,33.43
			C220.69,58.25,220.7,58.25,220.7,58.25z"/>
		<path class="st0" d="M116.65,58.39c0-10.97-0.04-21.94,0.01-32.91c0.04-9.06,4.57-13.65,13.64-13.84
			c3.91-0.08,7.81,0.01,11.72,0.04c0.82,0.01,1.75-0.09,1.82,1.15c0.07,1.36-0.93,1.43-1.85,1.44c-3.74,0.04-7.48-0.01-11.22,0.04
			c-7.21,0.08-10.95,3.37-11.1,10.56c-0.24,10.96-0.05,21.94-0.06,32.91c-0.01,11.3-0.04,22.6-0.06,33.91
			c0,0.66-0.04,1.33-0.07,1.99c-0.06,1.22-0.89,1.49-1.89,1.49c-1.16,0.01-1.01-0.89-1.01-1.61c-0.01-5.15,0-10.31,0-15.46
			c0-6.57,0-13.13,0-19.7C116.61,58.39,116.63,58.39,116.65,58.39z"/>
		<path class="st0" d="M136.99,68.61c0-7.9-0.16-15.8,0.05-23.7c0.2-7.66,4.42-12.49,11.72-14.03c6.88-1.45,14.49,3.05,16.55,9.79
			c0.29,0.94,0.52,1.8-0.88,2.05c-1.27,0.22-2.2,0.53-2.8-1.3c-2.14-6.55-7.21-9.15-13.88-7.37c-4.27,1.14-6.36,4.34-7.39,8.32
			c-0.41,1.58-0.46,3.29-0.47,4.95c-0.06,14.64-0.08,29.27-0.11,43.91c0,0.67-0.05,1.33-0.01,2c0.08,1.2-0.4,1.94-1.64,2.02
			c-1.56,0.1-1.16-1.14-1.16-1.93c-0.03-8.23-0.02-16.46-0.02-24.7C136.95,68.61,136.97,68.61,136.99,68.61z"/>
		<path class="st0" d="M197.1,69.49c0-6.81,0.03-13.63-0.01-20.44c-0.02-2.91-0.06-5.83-1.25-8.57c-1.78-4.07-4.79-6.59-9.29-6.86
			c-4.57-0.27-8.07,1.56-10.07,5.85c-0.38,0.83-0.76,1.66-1.16,2.48c-0.76,1.54-2.06,0.91-3.03,0.51c-1.29-0.52-0.27-1.39,0.05-2.03
			c2.15-4.38,4.95-8.08,10.02-9.34c7.81-1.94,15.57,3,17.26,11.01c0.39,1.88,0.55,3.77,0.56,5.69c0.02,14.87,0.06,29.74,0.09,44.61
			c0,0.33-0.02,0.67,0,1c0.11,1.57-1.08,1.75-2.13,1.82c-1.41,0.09-0.94-1.13-0.94-1.82c-0.04-7.98-0.03-15.95-0.03-23.93
			C197.14,69.49,197.12,69.49,197.1,69.49z"/>
		<g>
			<path class="st0" d="M284.22,130.04c-2.48,2.3-4.01,5.06-5.79,7.62c-1.76,2.52-3.41,5.11-5.06,7.71
				c-0.86,1.35-1.46,1.46-2.47,0.05c-3.81-5.34-8.05-10.35-12.63-15.39c-0.65,1.47-0.49,2.88-0.5,4.22
				c-0.03,6.15-0.04,12.3,0.06,18.45c0.02,1.65-0.58,2.21-2.17,2.2c-1.32,0-1.56-0.32-1.51-1.72c0.32-8.55,0.7-17.1-0.34-25.64
				c-0.07-0.58-0.31-1.11,0.41-1.48c1.45-0.76,5.54,0.07,6.62,1.41c2.97,3.69,5.89,7.42,8.9,11.08c1.9,2.32,2.57,2.3,4.3-0.1
				c2.48-3.44,4.88-6.93,7.32-10.4c1.12-1.59,4.36-2.63,6.19-2.04c0.85,0.27,0.81,0.83,0.81,1.55c-0.05,8.23-0.05,16.46-0.1,24.68
				c-0.01,0.84,0.37,1.88-0.71,2.44c-1.52,0.78-2.61,0.05-2.62-1.84c-0.03-6.15-0.02-12.3-0.02-18.45
				C284.91,132.99,284.85,131.61,284.22,130.04z"/>
			<path class="st0" d="M112.15,149.1c0-6.59,0-12.89,0-19.19c0-0.83,0.04-1.66,0.05-2.49c0.02-0.96,0.59-1.3,1.46-1.29
				c0.95,0.01,1.6,0.32,1.56,1.45c-0.05,1.24-0.03,2.49-0.03,3.74c0.02,6.98,0.05,13.96,0.04,20.94c0,0.91,0.57,2.26-0.8,2.53
				c-1.39,0.27-2.96,0.63-4.03-1c-3.47-5.29-7.62-10.06-11.57-14.99c-2.06-2.57-4.19-5.08-6.29-7.63c-0.81,0.52-0.47,1.26-0.47,1.85
				c-0.04,6.48-0.03,12.96-0.05,19.44c-0.01,2.11-1.16,2.88-3.18,2.29c-1.05-0.31-0.62-0.97-0.56-1.57
				c0.77-7.7,0.36-15.42,0.28-23.14c0-0.33-0.2-0.67-0.15-0.98c0.16-1.05-2.01-2.33-0.42-2.81c1.78-0.54,4.18-1.2,5.8,0.8
				c2.19,2.72,4.23,5.55,6.41,8.27c3.16,3.96,6.37,7.88,9.61,11.78C110.35,147.78,110.75,148.67,112.15,149.1z"/>
			<path class="st0" d="M180.44,141.92c0,3.57,0.01,7.15-0.01,10.72c0,0.8,0.23,1.84-0.87,2.06c-1.12,0.23-2.38,0.46-3.42-0.07
				c-0.78-0.4-0.53-1.4-0.07-1.98c1.04-1.29,0.98-2.76,0.97-4.26c-0.04-5.07-0.07-10.14-0.05-15.21c0.01-2.02-0.29-3.79-2.28-4.88
				c-0.57-0.31-1.11-0.88-0.92-1.63c0.25-0.97,1.13-0.82,1.85-0.83c3.91-0.03,7.82-0.19,11.72-0.04c6.96,0.28,11.21,5.6,9.69,11.84
				c-0.52,2.12-1.67,3.81-3.47,4.99c-1.11,0.72-1.19,1.37-0.35,2.37c1.5,1.78,2.92,3.62,4.34,5.46c0.81,1.04,1.83,1.67,3.15,1.78
				c0.61,0.05,1.21,0.17,1.15,0.97c-0.06,0.7-0.34,1.41-1.1,1.48c-2.03,0.17-4.09,0.64-5.63-1.5c-1.59-2.22-3.52-4.2-5.21-6.36
				c-1.26-1.6-2.67-2.95-4.6-3.69c-0.46-0.18-0.93-0.43-0.87-1.06c0.08-0.74,0.62-0.91,1.24-0.95c1.16-0.07,2.33-0.03,3.48-0.2
				c2.25-0.34,3.79-1.62,4.46-3.83c0.68-2.25,0.26-4.3-1.38-6c-2.16-2.23-8.2-3.41-11.05-2.26c-1.07,0.43-0.86,1.32-0.87,2.09
				c-0.03,3.66-0.01,7.31-0.01,10.97C180.37,141.92,180.41,141.92,180.44,141.92z"/>
			<path class="st0" d="M131.69,139.79c0.16-8.39,6.64-14.7,14.87-14.49c8.03,0.21,14.37,6.86,14.25,14.97
				c-0.12,8.25-6.65,15.14-14.23,15.03C138.17,155.18,131.52,148.25,131.69,139.79z M146.28,151.92
				c6.26,0.13,11.18-4.86,11.31-11.47c0.13-6.51-4.92-11.72-11.54-11.9c-6.35-0.17-11,4.61-11.15,11.49
				C134.76,146.16,140.16,151.8,146.28,151.92z"/>
			<path class="st0" d="M19.39,142.15c0,3.41,0.02,6.81-0.01,10.22c-0.01,0.85,0.37,1.99-0.87,2.31c-1.2,0.32-2.58,0.54-3.67,0.02
				c-1.03-0.49-0.22-1.67,0.2-2.12c1.42-1.55,1.14-3.36,1.15-5.15c0.03-4.82-0.02-9.64,0.06-14.46c0.04-2.12-0.33-3.96-2.21-5.23
				c-0.48-0.32-1.01-0.69-0.67-1.4c0.27-0.55,0.84-0.48,1.31-0.49c4.74-0.04,9.49-0.3,14.21-0.02c5.29,0.31,9.01,5.4,8.12,10.54
				c-0.92,5.35-6.38,9.14-11.42,7.87c-0.62-0.16-1.21-0.54-1.73-0.93c-0.39-0.3-0.62-0.83-0.44-1.34c0.24-0.71,0.87-0.62,1.46-0.62
				c1.16,0,2.34,0.07,3.48-0.11c3.39-0.54,5.5-3.14,5.36-6.42c-0.14-3.29-2.44-5.71-5.83-6c-1.9-0.16-3.82-0.13-5.73-0.24
				c-2.05-0.12-2.84,0.89-2.81,2.85c0.04,3.57,0.01,7.15,0.01,10.72C19.38,142.15,19.39,142.15,19.39,142.15z"/>
			<path class="st0" d="M312.63,133.33c-1.82,2.13-2.48,4.38-3.37,6.48c-1.82,4.28-3.51,8.61-5.27,12.91
				c-0.22,0.54-0.39,1.14-0.76,1.56c-0.76,0.86-1.91,0.83-2.77,0.47c-1.02-0.42-0.17-1.31,0.06-1.9c3.41-8.56,6.87-17.1,10.32-25.65
				c0.27-0.67,0.44-1.59,1.35-1.58c0.85,0.01,1.15,0.86,1.43,1.55c3.52,8.61,7.03,17.22,10.53,25.83c0.25,0.62,0.98,1.43-0.22,1.82
				c-0.93,0.3-1.99,0.67-2.56-0.64c-0.92-2.14-1.84-4.27-2.73-6.41C316.67,143.06,314.72,138.34,312.63,133.33z"/>
			<path class="st0" d="M228,133.33c-1.82,2.13-2.48,4.38-3.37,6.48c-1.82,4.28-3.51,8.61-5.27,12.91
				c-0.22,0.54-0.39,1.14-0.76,1.56c-0.76,0.86-1.91,0.83-2.77,0.47c-1.02-0.42-0.17-1.31,0.06-1.9c3.41-8.56,6.87-17.1,10.32-25.65
				c0.27-0.67,0.44-1.59,1.35-1.58c0.85,0.01,1.15,0.86,1.43,1.55c3.52,8.61,7.03,17.22,10.53,25.83c0.25,0.62,0.98,1.43-0.22,1.82
				c-0.93,0.3-1.99,0.67-2.56-0.64c-0.92-2.14-1.84-4.27-2.73-6.41C232.04,143.06,230.08,138.34,228,133.33z"/>
			<path class="st0" d="M60.33,133.55c-3.33,6.4-5.28,12.66-7.53,18.8c-0.2,0.54-0.3,1.16-0.62,1.62c-0.8,1.11-2.21,1.16-3.17,0.83
				c-1.23-0.43-0.23-1.53,0.05-2.26c3.16-8.21,6.36-16.42,9.58-24.6c0.31-0.8,0.42-2.03,1.5-2.08c1.34-0.06,1.27,1.35,1.62,2.2
				c3.3,8.07,6.59,16.14,9.8,24.25c0.28,0.7,1.6,1.9-0.1,2.38c-1.25,0.35-2.63,0.55-3.3-1.49c-1.69-5.12-3.68-10.14-5.62-15.18
				C62.02,136.63,61.24,135.35,60.33,133.55z"/>
		</g>
		<path class="st0" d="M181.13,11.73c1.58,0,3.15-0.01,4.73,0c0.72,0.01,1.61-0.21,1.61,0.97c0,0.84-0.35,1.52-1.27,1.53
			c-3.56,0.03-7.13,0.02-10.69,0c-0.67,0-1.06-0.35-0.95-1.12c0.12-0.81,0.61-1.14,1.36-1.15c1.74-0.01,3.48,0,5.22,0
			C181.13,11.88,181.13,11.81,181.13,11.73z"/>
		<path class="st0" d="M160.2,14.31c-1.41,0-2.82,0.01-4.23,0c-0.84-0.01-1.73,0.03-1.68-1.24c0.05-1.18,0.86-1.25,1.74-1.26
			c2.99-0.04,5.98-0.11,8.96-0.1c0.64,0,1.68-0.4,1.69,0.82c0,1.06-0.64,1.67-1.75,1.67c-1.58,0-3.15,0-4.73,0
			C160.2,14.23,160.2,14.27,160.2,14.31z"/>
		<g>
			<path class="st0" d="M99.95,177.94h1.47l1.51,4.72h0.02l1.56-4.72h1.37l-2.28,6.63h-1.38L99.95,177.94z"/>
			<path class="st0" d="M108.57,177.94h1.45v6.61h-1.45V177.94z"/>
			<path class="st0" d="M113.23,177.94h2.48c1.62,0,2.6,0.58,2.6,2.04c0,1.04-0.49,1.62-1.38,1.88l1.47,2.68h-1.54l-1.38-2.49h-0.84
				v2.49h-1.43V177.94z M115.65,180.93c0.84,0,1.24-0.24,1.24-0.91c0-0.65-0.4-0.89-1.24-0.89h-0.99v1.8H115.65z"/>
			<path class="st0" d="M122.79,179.15h-1.96v-1.21h5.39v1.21h-1.97v5.39h-1.46V179.15z"/>
			<path class="st0" d="M128.78,182.02v-4.08h1.46v4.04c0,0.96,0.37,1.49,1.23,1.49c0.86,0,1.21-0.53,1.21-1.49v-4.04h1.43v4.07
				c0,1.62-0.82,2.64-2.66,2.64S128.78,183.64,128.78,182.02z"/>
			<path class="st0" d="M138.96,177.91h1.38l2.34,6.63h-1.47l-0.49-1.47h-2.25l-0.51,1.47h-1.34L138.96,177.91z M140.38,182.02
				l-0.76-2.25h-0.02l-0.78,2.25H140.38z"/>
			<path class="st0" d="M145.3,177.94h1.46v5.43h2.91v1.18h-4.36V177.94z"/>
			<path class="st0" d="M158.32,177.91h1.38l2.34,6.63h-1.47l-0.49-1.47h-2.25l-0.51,1.47h-1.34L158.32,177.91z M159.74,182.02
				l-0.76-2.25h-0.02l-0.78,2.25H159.74z"/>
			<path class="st0" d="M164.66,177.94h2.48c1.62,0,2.6,0.58,2.6,2.04c0,1.04-0.49,1.62-1.38,1.88l1.47,2.68h-1.54l-1.38-2.49h-0.84
				v2.49h-1.43V177.94z M167.08,180.93c0.84,0,1.24-0.24,1.24-0.91c0-0.65-0.4-0.89-1.24-0.89h-0.99v1.8H167.08z"/>
			<path class="st0" d="M174.22,179.15h-1.96v-1.21h5.39v1.21h-1.97v5.39h-1.46V179.15z"/>
			<path class="st0" d="M184.19,181.22c0-2.07,1.15-3.4,3.01-3.4c1.25,0,2.25,0.5,2.67,2.12l-1.33,0.37
				c-0.28-0.92-0.7-1.28-1.35-1.28c-0.54,0-1.54,0.31-1.54,2.17c0,1.85,0.89,2.31,1.6,2.31c0.72,0,1.22-0.46,1.36-1.19h-1.15v-1.08
				h2.54v3.31h-1.17v-0.91h-0.02c-0.14,0.39-0.72,1.04-1.72,1.04C185.08,184.67,184.19,183.21,184.19,181.22z"/>
			<path class="st0" d="M194.9,177.91h1.38l2.34,6.63h-1.47l-0.49-1.47h-2.25l-0.51,1.47h-1.34L194.9,177.91z M196.31,182.02
				l-0.76-2.25h-0.02l-0.78,2.25H196.31z"/>
			<path class="st0" d="M201.24,177.94h1.46v5.43h2.91v1.18h-4.36V177.94z"/>
			<path class="st0" d="M208.26,177.94h1.46v5.43h2.91v1.18h-4.36V177.94z"/>
			<path class="st0" d="M215.28,177.94h4.5v1.21h-3.04v1.42h2.2v1.15h-2.2v1.64h3.2v1.18h-4.66V177.94z"/>
			<path class="st0" d="M222.71,177.94h2.48c1.62,0,2.6,0.58,2.6,2.04c0,1.04-0.49,1.62-1.38,1.88l1.47,2.68h-1.54l-1.38-2.49h-0.84
				v2.49h-1.43V177.94z M225.13,180.93c0.84,0,1.24-0.24,1.24-0.91c0-0.65-0.4-0.89-1.24-0.89h-0.99v1.8H225.13z"/>
			<path class="st0" d="M232.47,181.74l-2.28-3.8h1.5l1.51,2.57l1.52-2.57h1.48l-2.29,3.8v2.8h-1.45V181.74z"/>
		</g>
	</g>
</g>
</svg>
